<?xml version="1.0" encoding="utf-8"?>
<!-- Generator: Adobe Illustrator 23.0.3, SVG Export Plug-In . SVG Version: 6.00 Build 0)  -->
<svg version="1.1" id="Layer_1" xmlns="http://www.w3.org/2000/svg" xmlns:xlink="http://www.w3.org/1999/xlink" x="0px" y="0px"
	 viewBox="0 0 600 600" style="enable-background:new 0 0 600 600;" xml:space="preserve">
<style type="text/css">
	.st0{fill:url(#SVGID_1_);}
	.st1{fill:url(#SVGID_2_);}
	.st2{fill:url(#SVGID_3_);}
	.st3{fill:url(#SVGID_4_);}
	.st4{fill:url(#SVGID_5_);}
</style>
<g id="surface1">
	
		<linearGradient id="SVGID_1_" gradientUnits="userSpaceOnUse" x1="-53.7343" y1="500.9865" x2="498.2657" y2="31.9865" gradientTransform="matrix(1 0 0 -1 0 600)">
		<stop  offset="0" style="stop-color:#C20234"/>
		<stop  offset="1" style="stop-color:#FEA711"/>
	</linearGradient>
	<path class="st0" d="M460.1,210c-5.5,0-10,4.5-10,10v350c0,5.5-4.5,10-10,10h-280c-5.5,0-10-4.5-10-10V220c0-5.5-4.5-10-10-10
		s-10,4.5-10,10v350c0,16.6,13.4,30,30,30h280c16.6,0,30-13.4,30-30V220C470.1,214.5,465.6,210,460.1,210z"/>
	
		<linearGradient id="SVGID_2_" gradientUnits="userSpaceOnUse" x1="121.0842" y1="706.743" x2="673.0842" y2="237.743" gradientTransform="matrix(1 0 0 -1 0 600)">
		<stop  offset="0" style="stop-color:#C20234"/>
		<stop  offset="1" style="stop-color:#FEA711"/>
	</linearGradient>
	<path class="st1" d="M140.1,80c5.5,0,10-4.5,10-10V30c0-5.5,4.5-10,10-10h43.4l10.3,23.9c1.6,3.7,5.2,6.1,9.2,6.1h154.3
		c4,0,7.6-2.4,9.2-6.1L396.7,20h43.4c5.5,0,10,4.5,10,10v40c0,5.5,4.5,10,10,10s10-4.5,10-10V30c0-16.6-13.4-30-30-30h-280
		c-16.6,0-30,13.4-30,30v40C130.1,75.5,134.6,80,140.1,80z M374.9,20l-4.3,10h-141l-4.3-10H374.9z"/>
	
		<linearGradient id="SVGID_3_" gradientUnits="userSpaceOnUse" x1="-132.8593" y1="407.8586" x2="419.1407" y2="-61.1414" gradientTransform="matrix(1 0 0 -1 0 600)">
		<stop  offset="0" style="stop-color:#C20234"/>
		<stop  offset="1" style="stop-color:#FEA711"/>
	</linearGradient>
	<path class="st2" d="M390.1,550h-180c-5.5,0-10,4.5-10,10s4.5,10,10,10h180c5.5,0,10-4.5,10-10S395.6,550,390.1,550z"/>
	
		<linearGradient id="SVGID_4_" gradientUnits="userSpaceOnUse" x1="-30.2575" y1="528.6181" x2="521.7426" y2="59.6181" gradientTransform="matrix(1 0 0 -1 0 600)">
		<stop  offset="0" style="stop-color:#C20234"/>
		<stop  offset="1" style="stop-color:#FEA711"/>
	</linearGradient>
	<path class="st3" d="M407.5,253.3l-100-110c-1.9-2-4.6-3.1-7.4-3.1s-5.5,1.1-7.4,3.1l-100,110c-2.6,2.9-3.3,7.1-1.8,10.7l9.5,22.1
		c13,30.4,19.7,63.1,19.7,96.1c0,1.6,0.4,3.1,1.1,4.5l30,58.8c1.7,3.3,5,5.3,8.7,5.3l-9.7,67.8c-0.4,2.9,0.4,5.8,2.3,8
		c1.9,2.2,4.7,3.4,7.6,3.4h80c2.9,0,5.7-1.3,7.6-3.4c1.9-2.2,2.8-5.1,2.3-8l-9.7-67.7c3.7-0.1,7-2.2,8.7-5.4l30-58.8
		c0.7-1.4,1.1-3,1.1-4.5c0-33,6.7-65.7,19.7-96.1l9.5-22.1C410.8,260.3,410.1,256.2,407.5,253.3z M310.1,290c0,5.5-4.5,10-10,10
		s-10-4.5-10-10s4.5-10,10-10S310.1,284.5,310.1,290z M271.6,510l15.5-108.8c0.9-6.4,6.4-11.2,12.9-11.2s12,4.8,12.9,11.2L328.6,510
		H271.6z M381.4,278.2c-13.8,32.1-21,66.6-21.3,101.5l-23.4,45.9l-3.9-27.2c-2.3-16.3-16.3-28.4-32.7-28.4
		c-16.5,0-30.4,12.1-32.7,28.4l-3.9,27.2l-23.4-45.9c-0.3-34.9-7.5-69.4-21.3-101.5l-7-16.2l78.3-86.1v86c-13.8,4.9-22,19-19.6,33.4
		c2.5,14.4,15,24.9,29.6,24.9s27.1-10.5,29.6-24.9s-5.8-28.5-19.6-33.4v-86l78.3,86.1L381.4,278.2z"/>
	
		<linearGradient id="SVGID_5_" gradientUnits="userSpaceOnUse" x1="46.3407" y1="618.772" x2="598.3407" y2="149.772" gradientTransform="matrix(1 0 0 -1 0 600)">
		<stop  offset="0" style="stop-color:#C20234"/>
		<stop  offset="1" style="stop-color:#FEA711"/>
	</linearGradient>
	<path class="st4" d="M540.1,130c15.3,0.1,28.2-11.4,29.9-26.5c1.8-15.2-8.1-29.2-23-32.7s-30,4.8-35.1,19.2H330.1V80
		c0-5.5-4.5-10-10-10h-40c-5.5,0-10,4.5-10,10v10H88.3c-4.9-13.8-19-22-33.4-19.6C40.5,72.9,30,85.4,30,100s10.5,27.1,24.9,29.6
		c14.4,2.5,28.5-5.8,33.4-19.6h118.5C126.9,145.2,74,222.8,70.6,310H60.1c-5.5,0-10,4.5-10,10s4.5,10,10,10h40c5.5,0,10-4.5,10-10
		s-4.5-10-10-10h-9.5c4.5-100.5,79.9-183.5,179.5-197.7v7.7c0,5.5,4.5,10,10,10h40c5.5,0,10-4.5,10-10v-7.7
		c99.6,14.1,175,97.2,179.5,197.7h-9.5c-5.5,0-10,4.5-10,10s4.5,10,10,10h40c5.5,0,10-4.5,10-10s-4.5-10-10-10h-10.5
		c-3.5-87.2-56.3-164.8-136.2-200H512C516.2,121.9,527.5,129.9,540.1,130z M540.1,90c5.5,0,10,4.5,10,10s-4.5,10-10,10
		s-10-4.5-10-10S534.6,90,540.1,90z M60.1,110c-5.5,0-10-4.5-10-10s4.5-10,10-10s10,4.5,10,10S65.6,110,60.1,110z M310.1,110h-20V90
		h20V110z"/>
</g>
</svg>
