<svg id="Layer_1" data-name="Layer 1" xmlns="http://www.w3.org/2000/svg" xmlns:xlink="http://www.w3.org/1999/xlink" viewBox="0 0 501 439.9"><defs><style>.cls-1{fill:none;}.cls-2{fill:url(#linear-gradient);}.cls-3{fill:url(#linear-gradient-2);}.cls-4{fill:url(#linear-gradient-3);}.cls-5{fill:url(#linear-gradient-4);}.cls-6{fill:url(#linear-gradient-5);}.cls-7{fill:url(#linear-gradient-6);}.cls-8{fill:url(#linear-gradient-7);}.cls-9{fill:url(#linear-gradient-8);}.cls-10{fill:url(#linear-gradient-9);}.cls-11{fill:url(#linear-gradient-10);}.cls-12{fill:url(#linear-gradient-11);}.cls-13{fill:url(#linear-gradient-12);}.cls-14{fill:url(#linear-gradient-13);}.cls-15{fill:url(#linear-gradient-14);}.cls-16{fill:url(#linear-gradient-15);}.cls-17{fill:url(#linear-gradient-16);}.cls-18{fill:url(#linear-gradient-17);}.cls-19{fill:url(#linear-gradient-18);}.cls-20{fill:url(#linear-gradient-19);}.cls-21{fill:url(#linear-gradient-20);}.cls-22{fill:url(#linear-gradient-21);}.cls-23{fill:url(#linear-gradient-22);}.cls-24{fill:url(#linear-gradient-23);}.cls-25{fill:url(#linear-gradient-24);}.cls-26{fill:url(#linear-gradient-25);}.cls-27{fill:url(#linear-gradient-26);}.cls-28{fill:url(#linear-gradient-27);}.cls-29{fill:url(#linear-gradient-28);}.cls-30{fill:url(#linear-gradient-29);}.cls-31{fill:url(#linear-gradient-30);}.cls-32{fill:url(#linear-gradient-31);}.cls-33{fill:url(#linear-gradient-32);}.cls-34{fill:url(#linear-gradient-33);}.cls-35{fill:url(#linear-gradient-34);}.cls-36{clip-path:url(#clip-path);}</style><linearGradient id="linear-gradient" x1="149.6" y1="472.52" x2="149.6" y2="472.52" gradientUnits="userSpaceOnUse"><stop offset="0" stop-color="#c20234"/><stop offset="1" stop-color="#fea711"/></linearGradient><linearGradient id="linear-gradient-2" x1="591.89" y1="523.43" x2="49.29" y2="313.45" xlink:href="#linear-gradient"/><linearGradient id="linear-gradient-3" x1="434.25" y1="-30.77" x2="130.3" y2="103.57" xlink:href="#linear-gradient"/><linearGradient id="linear-gradient-4" x1="437.13" y1="-24.31" x2="133.18" y2="110.04" xlink:href="#linear-gradient"/><linearGradient id="linear-gradient-5" x1="440.02" y1="-17.84" x2="136.07" y2="116.51" xlink:href="#linear-gradient"/><linearGradient id="linear-gradient-6" x1="442.9" y1="-11.37" x2="138.95" y2="122.97" xlink:href="#linear-gradient"/><linearGradient id="linear-gradient-7" x1="445.79" y1="-4.9" x2="141.83" y2="129.44" xlink:href="#linear-gradient"/><linearGradient id="linear-gradient-8" x1="448.67" y1="1.57" x2="144.72" y2="135.91" xlink:href="#linear-gradient"/><linearGradient id="linear-gradient-9" x1="451.55" y1="8.03" x2="147.6" y2="142.38" xlink:href="#linear-gradient"/><linearGradient id="linear-gradient-10" x1="454.44" y1="14.5" x2="150.48" y2="148.85" xlink:href="#linear-gradient"/><linearGradient id="linear-gradient-11" x1="439.43" y1="-19.17" x2="135.47" y2="115.17" xlink:href="#linear-gradient"/><linearGradient id="linear-gradient-12" x1="442.31" y1="-12.7" x2="138.36" y2="121.64" xlink:href="#linear-gradient"/><linearGradient id="linear-gradient-13" x1="445.19" y1="-6.23" x2="141.24" y2="128.11" xlink:href="#linear-gradient"/><linearGradient id="linear-gradient-14" x1="448.08" y1="0.23" x2="144.12" y2="134.58" xlink:href="#linear-gradient"/><linearGradient id="linear-gradient-15" x1="450.96" y1="6.7" x2="147.01" y2="141.05" xlink:href="#linear-gradient"/><linearGradient id="linear-gradient-16" x1="453.84" y1="13.17" x2="149.89" y2="147.51" xlink:href="#linear-gradient"/><linearGradient id="linear-gradient-17" x1="456.73" y1="19.64" x2="152.78" y2="153.98" xlink:href="#linear-gradient"/><linearGradient id="linear-gradient-18" x1="459.61" y1="26.11" x2="155.66" y2="160.45" xlink:href="#linear-gradient"/><linearGradient id="linear-gradient-19" x1="444.6" y1="-7.56" x2="140.65" y2="126.78" xlink:href="#linear-gradient"/><linearGradient id="linear-gradient-20" x1="447.48" y1="-1.1" x2="143.53" y2="133.25" xlink:href="#linear-gradient"/><linearGradient id="linear-gradient-21" x1="450.37" y1="5.37" x2="146.42" y2="139.71" xlink:href="#linear-gradient"/><linearGradient id="linear-gradient-22" x1="453.25" y1="11.84" x2="149.3" y2="146.18" xlink:href="#linear-gradient"/><linearGradient id="linear-gradient-23" x1="456.13" y1="18.31" x2="152.18" y2="152.65" xlink:href="#linear-gradient"/><linearGradient id="linear-gradient-24" x1="459.02" y1="24.78" x2="155.07" y2="159.12" xlink:href="#linear-gradient"/><linearGradient id="linear-gradient-25" x1="461.9" y1="31.24" x2="157.95" y2="165.59" xlink:href="#linear-gradient"/><linearGradient id="linear-gradient-26" x1="464.79" y1="37.71" x2="160.83" y2="172.05" xlink:href="#linear-gradient"/><linearGradient id="linear-gradient-27" x1="449.77" y1="4.04" x2="145.82" y2="138.38" xlink:href="#linear-gradient"/><linearGradient id="linear-gradient-28" x1="452.66" y1="10.51" x2="148.71" y2="144.85" xlink:href="#linear-gradient"/><linearGradient id="linear-gradient-29" x1="455.54" y1="16.98" x2="151.59" y2="151.32" xlink:href="#linear-gradient"/><linearGradient id="linear-gradient-30" x1="458.42" y1="23.44" x2="154.47" y2="157.79" xlink:href="#linear-gradient"/><linearGradient id="linear-gradient-31" x1="461.31" y1="29.91" x2="157.36" y2="164.26" xlink:href="#linear-gradient"/><linearGradient id="linear-gradient-32" x1="464.19" y1="36.38" x2="160.24" y2="170.72" xlink:href="#linear-gradient"/><linearGradient id="linear-gradient-33" x1="467.08" y1="42.85" x2="163.12" y2="177.19" xlink:href="#linear-gradient"/><linearGradient id="linear-gradient-34" x1="469.96" y1="49.32" x2="166.01" y2="183.66" xlink:href="#linear-gradient"/><clipPath id="clip-path" transform="translate(-51 -137.18)"><path class="cls-1" d="M94.21,490.26S150,539.2,255.81,561.61c0,0,68.16,14,100.13,11s70.82-9.38,90.52-21.25,5.69-456.39,5.69-456.39L206.91,0,110,35.89Z"/></clipPath></defs><title>me</title><path class="cls-2" d="M149.6,472.52" transform="translate(-51 -137.18)"/><path class="cls-3" d="M552,379.12c0,125.32-114.45,258.16-372.54,158.6C61.65,492.28,51,451.18,51,325.87S228.51,124.45,281.06,290C319,409.52,552,305,552,379.12Z" transform="translate(-51 -137.18)"/><ellipse class="cls-4" cx="265.1" cy="43.99" rx="4.67" ry="4.63"/><ellipse class="cls-5" cx="282.62" cy="43.99" rx="4.67" ry="4.63"/><ellipse class="cls-6" cx="300.13" cy="43.99" rx="4.67" ry="4.63"/><ellipse class="cls-7" cx="317.65" cy="43.99" rx="4.67" ry="4.63"/><ellipse class="cls-8" cx="335.17" cy="43.99" rx="4.67" ry="4.63"/><ellipse class="cls-9" cx="352.69" cy="43.99" rx="4.67" ry="4.63"/><ellipse class="cls-10" cx="370.2" cy="43.99" rx="4.67" ry="4.63"/><ellipse class="cls-11" cx="387.72" cy="43.99" rx="4.67" ry="4.63"/><ellipse class="cls-12" cx="265.1" cy="57.88" rx="4.67" ry="4.63"/><ellipse class="cls-13" cx="282.62" cy="57.88" rx="4.67" ry="4.63"/><ellipse class="cls-14" cx="300.13" cy="57.88" rx="4.67" ry="4.63"/><ellipse class="cls-15" cx="317.65" cy="57.88" rx="4.67" ry="4.63"/><ellipse class="cls-16" cx="335.17" cy="57.88" rx="4.67" ry="4.63"/><ellipse class="cls-17" cx="352.69" cy="57.88" rx="4.67" ry="4.63"/><ellipse class="cls-18" cx="370.2" cy="57.88" rx="4.67" ry="4.63"/><ellipse class="cls-19" cx="387.72" cy="57.88" rx="4.67" ry="4.63"/><ellipse class="cls-20" cx="265.1" cy="71.77" rx="4.67" ry="4.63"/><ellipse class="cls-21" cx="282.62" cy="71.77" rx="4.67" ry="4.63"/><ellipse class="cls-22" cx="300.13" cy="71.77" rx="4.67" ry="4.63"/><ellipse class="cls-23" cx="317.65" cy="71.77" rx="4.67" ry="4.63"/><ellipse class="cls-24" cx="335.17" cy="71.77" rx="4.67" ry="4.63"/><ellipse class="cls-25" cx="352.69" cy="71.77" rx="4.67" ry="4.63"/><ellipse class="cls-26" cx="370.2" cy="71.77" rx="4.67" ry="4.63"/><ellipse class="cls-27" cx="387.72" cy="71.77" rx="4.67" ry="4.63"/><ellipse class="cls-28" cx="265.1" cy="85.66" rx="4.67" ry="4.63"/><ellipse class="cls-29" cx="282.62" cy="85.66" rx="4.67" ry="4.63"/><ellipse class="cls-30" cx="300.13" cy="85.66" rx="4.67" ry="4.63"/><ellipse class="cls-31" cx="317.65" cy="85.66" rx="4.67" ry="4.63"/><ellipse class="cls-32" cx="335.17" cy="85.66" rx="4.67" ry="4.63"/><ellipse class="cls-33" cx="352.69" cy="85.66" rx="4.67" ry="4.63"/><ellipse class="cls-34" cx="370.2" cy="85.66" rx="4.67" ry="4.63"/><ellipse class="cls-35" cx="387.72" cy="85.66" rx="4.67" ry="4.63"/><g class="cls-36"><image width="2920" height="2920" transform="translate(17.52 0) scale(0.15 0.15)" xlink:href="../../../../Downloads/Shahariar-Rahman-Sajib-removebg.png"/></g></svg>