<?xml version="1.0" encoding="utf-8"?>
<!-- Generator: Adobe Illustrator 23.0.3, SVG Export Plug-In . SVG Version: 6.00 Build 0)  -->
<svg version="1.1" id="Layer_1" xmlns="http://www.w3.org/2000/svg" xmlns:xlink="http://www.w3.org/1999/xlink" x="0px" y="0px"
	 viewBox="0 0 512 512" style="enable-background:new 0 0 512 512;" xml:space="preserve">
<style type="text/css">
	.st0{fill:url(#SVGID_1_);}
	.st1{clip-path:url(#SVGID_4_);fill:url(#SVGID_5_);}
	.st2{clip-path:url(#SVGID_4_);fill:url(#SVGID_6_);}
	.st3{clip-path:url(#SVGID_4_);fill:url(#SVGID_7_);}
	.st4{clip-path:url(#SVGID_4_);fill:url(#SVGID_8_);}
	.st5{clip-path:url(#SVGID_4_);fill:url(#SVGID_9_);}
	.st6{clip-path:url(#SVGID_4_);fill:url(#SVGID_10_);}
	.st7{clip-path:url(#SVGID_4_);fill:url(#SVGID_11_);}
	.st8{clip-path:url(#SVGID_4_);fill:url(#SVGID_12_);}
	.st9{clip-path:url(#SVGID_4_);fill:url(#SVGID_13_);}
	.st10{clip-path:url(#SVGID_4_);fill:url(#SVGID_14_);}
	.st11{clip-path:url(#SVGID_4_);fill:url(#SVGID_15_);}
	.st12{clip-path:url(#SVGID_4_);fill:url(#SVGID_16_);}
	.st13{clip-path:url(#SVGID_4_);fill:url(#SVGID_17_);}
	.st14{clip-path:url(#SVGID_4_);fill:url(#SVGID_18_);}
	.st15{clip-path:url(#SVGID_4_);fill:url(#SVGID_19_);}
	.st16{clip-path:url(#SVGID_4_);fill:url(#SVGID_20_);}
	.st17{clip-path:url(#SVGID_4_);fill:url(#SVGID_21_);}
	.st18{clip-path:url(#SVGID_4_);fill:url(#SVGID_22_);}
	.st19{clip-path:url(#SVGID_4_);fill:url(#SVGID_23_);}
	.st20{clip-path:url(#SVGID_4_);fill:url(#SVGID_24_);}
	.st21{clip-path:url(#SVGID_4_);fill:url(#SVGID_25_);}
	.st22{clip-path:url(#SVGID_4_);fill:url(#SVGID_26_);}
	.st23{clip-path:url(#SVGID_4_);fill:url(#SVGID_27_);}
	.st24{clip-path:url(#SVGID_4_);fill:url(#SVGID_28_);}
	.st25{clip-path:url(#SVGID_4_);fill:url(#SVGID_29_);}
	.st26{clip-path:url(#SVGID_4_);fill:url(#SVGID_30_);}
	.st27{clip-path:url(#SVGID_4_);fill:url(#SVGID_31_);}
	.st28{clip-path:url(#SVGID_4_);fill:url(#SVGID_32_);}
	.st29{clip-path:url(#SVGID_4_);fill:url(#SVGID_33_);}
	.st30{clip-path:url(#SVGID_4_);fill:url(#SVGID_34_);}
	.st31{clip-path:url(#SVGID_4_);fill:url(#SVGID_35_);}
	.st32{clip-path:url(#SVGID_4_);fill:url(#SVGID_36_);}
	.st33{clip-path:url(#SVGID_4_);fill:url(#SVGID_37_);}
	.st34{clip-path:url(#SVGID_4_);fill:url(#SVGID_38_);}
	.st35{clip-path:url(#SVGID_4_);fill:url(#SVGID_39_);}
	.st36{clip-path:url(#SVGID_4_);fill:url(#SVGID_40_);}
	.st37{clip-path:url(#SVGID_4_);fill:url(#SVGID_41_);}
	.st38{clip-path:url(#SVGID_4_);fill:url(#SVGID_42_);}
	.st39{clip-path:url(#SVGID_4_);fill:url(#SVGID_43_);}
	.st40{clip-path:url(#SVGID_4_);fill:url(#SVGID_44_);}
	.st41{clip-path:url(#SVGID_4_);fill:url(#SVGID_45_);}
	.st42{clip-path:url(#SVGID_4_);fill:url(#SVGID_46_);}
	.st43{clip-path:url(#SVGID_4_);fill:url(#SVGID_47_);}
	.st44{clip-path:url(#SVGID_4_);fill:url(#SVGID_48_);}
	.st45{clip-path:url(#SVGID_4_);fill:url(#SVGID_49_);}
	.st46{clip-path:url(#SVGID_4_);fill:url(#SVGID_50_);}
	.st47{clip-path:url(#SVGID_4_);fill:url(#SVGID_51_);}
	.st48{clip-path:url(#SVGID_4_);fill:url(#SVGID_52_);}
	.st49{clip-path:url(#SVGID_4_);fill:url(#SVGID_53_);}
	.st50{clip-path:url(#SVGID_4_);fill:url(#SVGID_54_);}
	.st51{clip-path:url(#SVGID_4_);fill:url(#SVGID_55_);}
	.st52{clip-path:url(#SVGID_4_);fill:url(#SVGID_56_);}
	.st53{clip-path:url(#SVGID_4_);fill:url(#SVGID_57_);}
	.st54{clip-path:url(#SVGID_4_);fill:url(#SVGID_58_);}
	.st55{clip-path:url(#SVGID_4_);fill:url(#SVGID_59_);}
	.st56{clip-path:url(#SVGID_4_);fill:url(#SVGID_60_);}
	.st57{clip-path:url(#SVGID_4_);fill:url(#SVGID_61_);}
	.st58{clip-path:url(#SVGID_4_);fill:url(#SVGID_62_);}
	.st59{clip-path:url(#SVGID_4_);fill:url(#SVGID_63_);}
	.st60{clip-path:url(#SVGID_4_);fill:url(#SVGID_64_);}
	.st61{clip-path:url(#SVGID_4_);fill:url(#SVGID_65_);}
	.st62{clip-path:url(#SVGID_4_);fill:url(#SVGID_66_);}
	.st63{clip-path:url(#SVGID_4_);fill:url(#SVGID_67_);}
	.st64{clip-path:url(#SVGID_4_);fill:url(#SVGID_68_);}
	.st65{clip-path:url(#SVGID_4_);fill:url(#SVGID_69_);}
	.st66{clip-path:url(#SVGID_4_);fill:url(#SVGID_70_);}
	.st67{clip-path:url(#SVGID_4_);fill:url(#SVGID_71_);}
	.st68{clip-path:url(#SVGID_4_);fill:url(#SVGID_72_);}
	.st69{clip-path:url(#SVGID_4_);fill:url(#SVGID_73_);}
	.st70{clip-path:url(#SVGID_4_);fill:url(#SVGID_74_);}
	.st71{clip-path:url(#SVGID_4_);fill:url(#SVGID_75_);}
	.st72{clip-path:url(#SVGID_4_);fill:url(#SVGID_76_);}
	.st73{clip-path:url(#SVGID_4_);fill:url(#SVGID_77_);}
	.st74{clip-path:url(#SVGID_4_);fill:url(#SVGID_78_);}
	.st75{clip-path:url(#SVGID_4_);fill:url(#SVGID_79_);}
	.st76{clip-path:url(#SVGID_4_);fill:url(#SVGID_80_);}
	.st77{clip-path:url(#SVGID_4_);fill:url(#SVGID_81_);}
	.st78{clip-path:url(#SVGID_4_);fill:url(#SVGID_82_);}
	.st79{clip-path:url(#SVGID_4_);fill:url(#SVGID_83_);}
	.st80{clip-path:url(#SVGID_4_);fill:url(#SVGID_84_);}
	.st81{clip-path:url(#SVGID_4_);fill:url(#SVGID_85_);}
	.st82{clip-path:url(#SVGID_4_);fill:url(#SVGID_86_);}
	.st83{clip-path:url(#SVGID_4_);fill:url(#SVGID_87_);}
	.st84{clip-path:url(#SVGID_4_);fill:url(#SVGID_88_);}
	.st85{clip-path:url(#SVGID_4_);fill:url(#SVGID_89_);}
	.st86{clip-path:url(#SVGID_4_);fill:url(#SVGID_90_);}
	.st87{clip-path:url(#SVGID_4_);fill:url(#SVGID_91_);}
	.st88{clip-path:url(#SVGID_4_);fill:url(#SVGID_92_);}
	.st89{clip-path:url(#SVGID_4_);fill:url(#SVGID_93_);}
	.st90{clip-path:url(#SVGID_4_);fill:url(#SVGID_94_);}
	.st91{clip-path:url(#SVGID_4_);fill:url(#SVGID_95_);}
	.st92{clip-path:url(#SVGID_4_);fill:url(#SVGID_96_);}
	.st93{clip-path:url(#SVGID_4_);fill:url(#SVGID_97_);}
	.st94{clip-path:url(#SVGID_4_);fill:url(#SVGID_98_);}
	.st95{clip-path:url(#SVGID_4_);fill:url(#SVGID_99_);}
	.st96{clip-path:url(#SVGID_4_);fill:url(#SVGID_100_);}
	.st97{clip-path:url(#SVGID_4_);fill:url(#SVGID_101_);}
	.st98{clip-path:url(#SVGID_4_);fill:url(#SVGID_102_);}
	.st99{clip-path:url(#SVGID_4_);fill:url(#SVGID_103_);}
	.st100{clip-path:url(#SVGID_4_);fill:url(#SVGID_104_);}
	.st101{fill:url(#SVGID_105_);}
</style>
<linearGradient id="SVGID_1_" gradientUnits="userSpaceOnUse" x1="31.0643" y1="466.9746" x2="480.0643" y2="27.9746">
	<stop  offset="0" style="stop-color:#C20234"/>
	<stop  offset="1" style="stop-color:#FEA711"/>
</linearGradient>
<path class="st0" d="M430.7,51.2h-17.1V34.1h17.1V51.2z M413.6,85.3h17.1V68.3h-17.1V85.3z M413.6,119.5h17.1v-17.1h-17.1V119.5z
	 M72.3,0H55.2v17.1h17.1V0z M55.2,51.2h17.1V34.1H55.2V51.2z M55.2,85.3h17.1V68.3H55.2V85.3z M225.9,349.9h-68.3
	c-4.7,0-8.5,3.8-8.5,8.5c0,4.7,3.8,8.5,8.5,8.5h68.3c4.7,0,8.5-3.8,8.5-8.5C234.4,353.7,230.6,349.9,225.9,349.9z M208.8,384h-34.1
	c-4.7,0-8.5,3.8-8.5,8.5c0,4.7,3.8,8.5,8.5,8.5h34.1c4.7,0,8.5-3.8,8.5-8.5C217.3,387.8,213.5,384,208.8,384z M55.2,136.5h34.1V8.5
	c0-4.7,3.8-8.5,8.5-8.5H388c4.7,0,8.5,3.8,8.5,8.5v128h25.6c1,0,2,0.2,3,0.6c0.2,0.1,0.4,0.2,0.7,0.3c0.9,0.4,1.7,0.9,2.4,1.6
	c0.1,0.1,0.1,0.1,0.1,0.2c0.4,0.4,0.8,0.9,1.2,1.5l51.2,85.3c2.4,4,1.1,9.3-2.9,11.7c-1.3,0.8-2.8,1.2-4.4,1.2h-42.7v74.8
	c0.9,0.6,1.7,1.1,2.6,1.7l35.8-20.7c4.1-2.4,9.3-1,11.7,3.1l25.6,44.4c2.4,4.1,1,9.3-3.1,11.7l-35.8,20.6c0.7,6.3,0.7,12.7,0,19.1
	l35.8,20.7c4.1,2.4,5.5,7.6,3.1,11.7l-25.6,44.4c-2.4,4.1-7.6,5.5-11.7,3.1l-35.8-20.7l-1.3,0.9l-0.8,0.5c-1.9,1.3-3.8,2.6-5.8,3.7
	c-2.8,1.6-5.7,3.1-8.6,4.4v41.2c0,4.7-3.8,8.5-8.5,8.5h-51.2c-4.7,0-8.5-3.8-8.5-8.5v-41.4c-2.3-1-3.9-1.8-5.5-2.7l-1.4-0.7
	c-1.4-0.8-2.8-1.6-4.2-2.5l-1.6-1c-1.4-0.9-2.6-1.7-3.7-2.6l-35.8,20.7c-4.1,2.4-9.3,1-11.7-3.1l-20.2-35H55.2
	c-4.7,0-8.5-3.8-8.5-8.5V238.9H12.5c-4.7,0-8.5-3.8-8.5-8.5c0-1.3,0.3-2.6,0.9-3.8l42.7-85.3c0.4-0.8,0.9-1.5,1.5-2.1
	c0.1-0.1,0.3-0.2,0.4-0.3c0.6-0.5,1.3-1,2-1.3c0.2-0.1,0.5-0.2,0.7-0.3C53.2,136.8,54.2,136.6,55.2,136.5z M297.9,393.5
	c-0.1-0.5-0.1-1.1-0.2-1.6c-0.2-2.7-0.4-5.3-0.4-8s0.2-5.2,0.4-7.8c0.1-0.6,0.1-1.2,0.2-1.7l-35.8-20.7c-4.1-2.4-5.5-7.6-3.1-11.7
	l25.6-44.4c2.4-4.1,7.6-5.5,11.7-3.1l14.9,8.6V181.2l-26.5,53c-1.5,2.9-4.4,4.7-7.7,4.7H63.7v179.2h195c0.7-1.7,1.9-3,3.4-4
	L297.9,393.5z M426.9,332.2c-6.3-5.4-13.6-9.7-21.5-12.5c-3.4-1.2-5.7-4.4-5.7-8v-38.6h-34.1v38.6c0,3.6-2.3,6.8-5.7,8
	c-1.9,0.7-3.7,1.4-5.5,2.2l-1.4,0.7c-1.3,0.6-2.7,1.3-4,2.1l-1.2,0.7c-1.4,0.9-2.8,1.7-4.1,2.6l-0.8,0.6c-1.6,1.1-3.1,2.3-4.6,3.6
	c-2.8,2.3-6.7,2.7-9.8,0.9l-33.4-19.3l-17.1,29.6l33.4,19.3c3.1,1.8,4.8,5.4,4.1,8.9c-0.4,1.9-0.6,3.9-0.9,5.9
	c-0.2,2.4-0.4,4.5-0.4,6.6c0,2.1,0.1,4.2,0.3,6.3c0,0.3,0,0.6,0,0.9c0.2,1.3,0.5,3.3,0.9,5.3c0.7,3.6-1,7.1-4.1,8.9l-33.4,19.3v0.1
	l17.1,29.5l33.4-19.3c3.1-1.8,7.1-1.4,9.8,0.9l3.7,2.9c0.9,0.7,1.9,1.4,2.9,2l1.5,1c1.1,0.7,2.2,1.3,3.4,2l1.1,0.6
	c1.3,0.7,2.6,1.3,4,1.9c2,0.9,3.5,1.5,5,2c3.4,1.2,5.7,4.4,5.7,8v38.6h34.1v-38.6c0-3.6,2.3-6.8,5.7-8c3.9-1.4,7.7-3.1,11.3-5.2
	c1.8-1,3.3-2,4.9-3.1l0.7-0.5c1.6-1.1,3.2-2.4,4.7-3.7c2.7-2.3,6.7-2.7,9.8-0.9l33.4,19.3l17.1-29.6l-33.4-19.3
	c-3.1-1.8-4.8-5.4-4.1-8.9c1.6-8.2,1.6-16.7,0-24.9c-0.7-3.6,1-7.1,4.1-8.9l33.4-19.3l-17.1-29.6l-33.5,19.3
	C433.6,334.9,429.7,334.5,426.9,332.2z M332.1,315.4l0.9-0.7l0.9-0.6c1.8-1.3,3.5-2.3,5.2-3.4l1.6-0.9c1.6-0.9,3.3-1.8,5-2.6
	l1.7-0.9l1.1-0.5v-41.3c0-4.7,3.8-8.5,8.5-8.5h51.2c2,0,3.8,0.7,5.3,2v-19.1h-41.2c-3,0-5.8-1.6-7.3-4.1l-36.8-61.3v139.7
	L332.1,315.4z M345.3,68.3h34.1V17.1h-34.1V68.3z M345.3,136.5h34.1V85.3h-34.1V136.5z M336.2,153.6l41,68.3h81.1l-41-68.3H336.2z
	 M106.4,68.3h68.3V42.7c0-4.7,3.8-8.5,8.5-8.5h68.3c4.7,0,8.5,3.8,8.5,8.5v25.6h68.3V17.1H106.4V68.3z M242.9,68.3V51.2h-51.2v17.1
	H242.9z M191.7,85.3v17.1h51.2V85.3H191.7z M106.4,136.5h221.9V85.3H260v25.6c0,4.7-3.8,8.5-8.5,8.5h-68.3c-4.7,0-8.5-3.8-8.5-8.5
	V85.3h-68.3V136.5z M60.5,153.6l-34.1,68.3h245.5l34.1-68.3H60.5z M242.9,273.1v51.2c0,4.7-3.8,8.5-8.5,8.5h-85.3
	c-4.7,0-8.5-3.8-8.5-8.5v-51.2c0-4.7,3.8-8.5,8.5-8.5h85.3C239.1,264.5,242.9,268.4,242.9,273.1z M225.9,281.6h-68.3v34.1h68.3
	V281.6z M416.8,384c0,18.9-15.3,34.1-34.1,34.1s-34.1-15.3-34.1-34.1s15.3-34.1,34.1-34.1S416.8,365.1,416.8,384z M399.7,384
	c0-9.4-7.6-17.1-17.1-17.1s-17.1,7.6-17.1,17.1s7.6,17.1,17.1,17.1S399.7,393.4,399.7,384z"/>
<g>
	<g>
		<g>
			<defs>
				<path id="SVGID_2_" d="M656.7-76.8H529.3c-9.7,0-18.3-5.7-22.1-14.6l-14.8-35c-0.5-1.2-0.4-2.6,0.3-3.8c0.7-1.1,2-1.8,3.3-1.8
					H690c1.3,0,2.6,0.7,3.3,1.8c0.7,1.1,0.9,2.5,0.3,3.8l-14.8,35C675-82.5,666.4-76.8,656.7-76.8L656.7-76.8z M502.1-124l12.5,29.5
					c2.5,5.9,8.3,9.8,14.7,9.8h127.4c6.4,0,12.2-3.8,14.7-9.8l12.5-29.5H502.1z"/>
			</defs>
			<linearGradient id="SVGID_3_" gradientUnits="userSpaceOnUse" x1="702.2534" y1="-238.1225" x2="277.2534" y2="229.8775">
				<stop  offset="0" style="stop-color:#C20234"/>
				<stop  offset="1" style="stop-color:#FEA711"/>
			</linearGradient>
			<use xlink:href="#SVGID_2_"  style="overflow:visible;fill:url(#SVGID_3_);"/>
			<clipPath id="SVGID_4_">
				<use xlink:href="#SVGID_2_"  style="overflow:visible;"/>
			</clipPath>
			<linearGradient id="SVGID_5_" gradientUnits="userSpaceOnUse" x1="748.6976" y1="-195.9456" x2="323.6976" y2="272.0544">
				<stop  offset="0" style="stop-color:#C20234"/>
				<stop  offset="1" style="stop-color:#FEA711"/>
			</linearGradient>
			<polygon class="st1" points="683.9,-122.4 681.3,-124 683.9,-124 			"/>
			<linearGradient id="SVGID_6_" gradientUnits="userSpaceOnUse" x1="748.0718" y1="-196.5138" x2="323.0718" y2="271.4862">
				<stop  offset="0" style="stop-color:#C20234"/>
				<stop  offset="1" style="stop-color:#FEA711"/>
			</linearGradient>
			<polygon class="st2" points="683.9,-119.1 676.1,-124 681.3,-124 683.9,-122.4 			"/>
			<linearGradient id="SVGID_7_" gradientUnits="userSpaceOnUse" x1="747.4461" y1="-197.0821" x2="322.4461" y2="270.9179">
				<stop  offset="0" style="stop-color:#C20234"/>
				<stop  offset="1" style="stop-color:#FEA711"/>
			</linearGradient>
			<polygon class="st3" points="683.9,-115.8 670.8,-124 676.1,-124 683.9,-119.1 			"/>
			<linearGradient id="SVGID_8_" gradientUnits="userSpaceOnUse" x1="746.8204" y1="-197.6503" x2="321.8203" y2="270.3497">
				<stop  offset="0" style="stop-color:#C20234"/>
				<stop  offset="1" style="stop-color:#FEA711"/>
			</linearGradient>
			<polygon class="st4" points="683.9,-112.4 665.5,-124 670.8,-124 683.9,-115.8 			"/>
			<linearGradient id="SVGID_9_" gradientUnits="userSpaceOnUse" x1="746.1946" y1="-198.2186" x2="321.1946" y2="269.7814">
				<stop  offset="0" style="stop-color:#C20234"/>
				<stop  offset="1" style="stop-color:#FEA711"/>
			</linearGradient>
			<polygon class="st5" points="683.9,-109.1 660.2,-124 665.5,-124 683.9,-112.4 			"/>
			<linearGradient id="SVGID_10_" gradientUnits="userSpaceOnUse" x1="744.9952" y1="-199.3078" x2="319.9952" y2="268.6922">
				<stop  offset="0" style="stop-color:#C20234"/>
				<stop  offset="1" style="stop-color:#FEA711"/>
			</linearGradient>
			<polygon class="st6" points="683.9,-108.8 682.6,-106.7 654.9,-124 660.2,-124 683.9,-109.1 			"/>
			<linearGradient id="SVGID_11_" gradientUnits="userSpaceOnUse" x1="743.7284" y1="-200.4582" x2="318.7284" y2="267.5418">
				<stop  offset="0" style="stop-color:#C20234"/>
				<stop  offset="1" style="stop-color:#FEA711"/>
			</linearGradient>
			<polygon class="st7" points="682.6,-106.7 681.1,-104.3 649.6,-124 654.9,-124 			"/>
			<linearGradient id="SVGID_12_" gradientUnits="userSpaceOnUse" x1="742.4616" y1="-201.6086" x2="317.4616" y2="266.3914">
				<stop  offset="0" style="stop-color:#C20234"/>
				<stop  offset="1" style="stop-color:#FEA711"/>
			</linearGradient>
			<polygon class="st8" points="681.1,-104.3 679.6,-101.9 644.3,-124 649.6,-124 			"/>
			<linearGradient id="SVGID_13_" gradientUnits="userSpaceOnUse" x1="741.1948" y1="-202.759" x2="316.1948" y2="265.241">
				<stop  offset="0" style="stop-color:#C20234"/>
				<stop  offset="1" style="stop-color:#FEA711"/>
			</linearGradient>
			<polygon class="st9" points="679.6,-101.9 678.1,-99.5 639,-124 644.3,-124 			"/>
			<linearGradient id="SVGID_14_" gradientUnits="userSpaceOnUse" x1="739.928" y1="-203.9094" x2="314.928" y2="264.0906">
				<stop  offset="0" style="stop-color:#C20234"/>
				<stop  offset="1" style="stop-color:#FEA711"/>
			</linearGradient>
			<polygon class="st10" points="678.1,-99.5 676.6,-97.1 633.7,-124 639,-124 			"/>
			<linearGradient id="SVGID_15_" gradientUnits="userSpaceOnUse" x1="738.6613" y1="-205.0598" x2="313.6612" y2="262.9402">
				<stop  offset="0" style="stop-color:#C20234"/>
				<stop  offset="1" style="stop-color:#FEA711"/>
			</linearGradient>
			<polygon class="st11" points="676.6,-97.1 675.1,-94.7 628.4,-124 633.7,-124 			"/>
			<linearGradient id="SVGID_16_" gradientUnits="userSpaceOnUse" x1="737.3945" y1="-206.2102" x2="312.3944" y2="261.7898">
				<stop  offset="0" style="stop-color:#C20234"/>
				<stop  offset="1" style="stop-color:#FEA711"/>
			</linearGradient>
			<polygon class="st12" points="675.1,-94.7 673.6,-92.4 623.1,-124 628.4,-124 			"/>
			<linearGradient id="SVGID_17_" gradientUnits="userSpaceOnUse" x1="736.1276" y1="-207.3606" x2="311.1277" y2="260.6394">
				<stop  offset="0" style="stop-color:#C20234"/>
				<stop  offset="1" style="stop-color:#FEA711"/>
			</linearGradient>
			<polygon class="st13" points="673.6,-92.4 672.1,-90 617.8,-124 623.1,-124 			"/>
			<linearGradient id="SVGID_18_" gradientUnits="userSpaceOnUse" x1="734.8608" y1="-208.511" x2="309.8609" y2="259.489">
				<stop  offset="0" style="stop-color:#C20234"/>
				<stop  offset="1" style="stop-color:#FEA711"/>
			</linearGradient>
			<polygon class="st14" points="672.1,-90 670.7,-87.6 612.5,-124 617.8,-124 			"/>
			<linearGradient id="SVGID_19_" gradientUnits="userSpaceOnUse" x1="733.5941" y1="-209.6614" x2="308.5941" y2="258.3386">
				<stop  offset="0" style="stop-color:#C20234"/>
				<stop  offset="1" style="stop-color:#FEA711"/>
			</linearGradient>
			<polygon class="st15" points="670.7,-87.6 669.2,-85.2 607.2,-124 612.5,-124 			"/>
			<linearGradient id="SVGID_20_" gradientUnits="userSpaceOnUse" x1="732.1772" y1="-210.948" x2="307.1773" y2="257.052">
				<stop  offset="0" style="stop-color:#C20234"/>
				<stop  offset="1" style="stop-color:#FEA711"/>
			</linearGradient>
			<polygon class="st16" points="669.2,-85.2 668.9,-84.8 664.6,-84.8 601.9,-124 607.2,-124 			"/>
			<linearGradient id="SVGID_21_" gradientUnits="userSpaceOnUse" x1="729.5436" y1="-213.3396" x2="304.5436" y2="254.6604">
				<stop  offset="0" style="stop-color:#C20234"/>
				<stop  offset="1" style="stop-color:#FEA711"/>
			</linearGradient>
			<polygon class="st17" points="659.3,-84.8 596.6,-124 601.9,-124 664.6,-84.8 			"/>
			<linearGradient id="SVGID_22_" gradientUnits="userSpaceOnUse" x1="726.6422" y1="-215.9746" x2="301.6421" y2="252.0254">
				<stop  offset="0" style="stop-color:#C20234"/>
				<stop  offset="1" style="stop-color:#FEA711"/>
			</linearGradient>
			<polygon class="st18" points="654,-84.8 591.3,-124 596.6,-124 659.3,-84.8 			"/>
			<linearGradient id="SVGID_23_" gradientUnits="userSpaceOnUse" x1="723.7406" y1="-218.6095" x2="298.7406" y2="249.3905">
				<stop  offset="0" style="stop-color:#C20234"/>
				<stop  offset="1" style="stop-color:#FEA711"/>
			</linearGradient>
			<polygon class="st19" points="648.7,-84.8 586.1,-124 591.3,-124 654,-84.8 			"/>
			<linearGradient id="SVGID_24_" gradientUnits="userSpaceOnUse" x1="720.8391" y1="-221.2444" x2="295.8391" y2="246.7556">
				<stop  offset="0" style="stop-color:#C20234"/>
				<stop  offset="1" style="stop-color:#FEA711"/>
			</linearGradient>
			<polygon class="st20" points="643.4,-84.8 580.8,-124 586.1,-124 648.7,-84.8 			"/>
			<linearGradient id="SVGID_25_" gradientUnits="userSpaceOnUse" x1="717.9376" y1="-223.8793" x2="292.9376" y2="244.1207">
				<stop  offset="0" style="stop-color:#C20234"/>
				<stop  offset="1" style="stop-color:#FEA711"/>
			</linearGradient>
			<polygon class="st21" points="638.1,-84.8 575.5,-124 580.8,-124 643.4,-84.8 			"/>
			<linearGradient id="SVGID_26_" gradientUnits="userSpaceOnUse" x1="715.0361" y1="-226.5143" x2="290.036" y2="241.4857">
				<stop  offset="0" style="stop-color:#C20234"/>
				<stop  offset="1" style="stop-color:#FEA711"/>
			</linearGradient>
			<polygon class="st22" points="632.8,-84.8 570.2,-124 575.5,-124 638.1,-84.8 			"/>
			<linearGradient id="SVGID_27_" gradientUnits="userSpaceOnUse" x1="712.1345" y1="-229.1492" x2="287.1345" y2="238.8508">
				<stop  offset="0" style="stop-color:#C20234"/>
				<stop  offset="1" style="stop-color:#FEA711"/>
			</linearGradient>
			<polygon class="st23" points="627.5,-84.8 564.9,-124 570.2,-124 632.8,-84.8 			"/>
			<linearGradient id="SVGID_28_" gradientUnits="userSpaceOnUse" x1="709.233" y1="-231.7841" x2="284.233" y2="236.2159">
				<stop  offset="0" style="stop-color:#C20234"/>
				<stop  offset="1" style="stop-color:#FEA711"/>
			</linearGradient>
			<polygon class="st24" points="622.2,-84.8 559.6,-124 564.9,-124 627.5,-84.8 			"/>
			<linearGradient id="SVGID_29_" gradientUnits="userSpaceOnUse" x1="706.3315" y1="-234.4191" x2="281.3315" y2="233.5809">
				<stop  offset="0" style="stop-color:#C20234"/>
				<stop  offset="1" style="stop-color:#FEA711"/>
			</linearGradient>
			<polygon class="st25" points="616.9,-84.8 554.3,-124 559.6,-124 622.2,-84.8 			"/>
			<linearGradient id="SVGID_30_" gradientUnits="userSpaceOnUse" x1="703.43" y1="-237.054" x2="278.43" y2="230.946">
				<stop  offset="0" style="stop-color:#C20234"/>
				<stop  offset="1" style="stop-color:#FEA711"/>
			</linearGradient>
			<polygon class="st26" points="611.6,-84.8 549,-124 554.3,-124 616.9,-84.8 			"/>
			<linearGradient id="SVGID_31_" gradientUnits="userSpaceOnUse" x1="700.5284" y1="-239.6889" x2="275.5284" y2="228.3111">
				<stop  offset="0" style="stop-color:#C20234"/>
				<stop  offset="1" style="stop-color:#FEA711"/>
			</linearGradient>
			<polygon class="st27" points="606.3,-84.8 543.7,-124 549,-124 611.6,-84.8 			"/>
			<linearGradient id="SVGID_32_" gradientUnits="userSpaceOnUse" x1="697.627" y1="-242.3238" x2="272.6269" y2="225.6762">
				<stop  offset="0" style="stop-color:#C20234"/>
				<stop  offset="1" style="stop-color:#FEA711"/>
			</linearGradient>
			<polygon class="st28" points="601,-84.8 538.4,-124 543.7,-124 606.3,-84.8 			"/>
			<linearGradient id="SVGID_33_" gradientUnits="userSpaceOnUse" x1="694.7254" y1="-244.9588" x2="269.7254" y2="223.0412">
				<stop  offset="0" style="stop-color:#C20234"/>
				<stop  offset="1" style="stop-color:#FEA711"/>
			</linearGradient>
			<polygon class="st29" points="595.7,-84.8 533.1,-124 538.4,-124 601,-84.8 			"/>
			<linearGradient id="SVGID_34_" gradientUnits="userSpaceOnUse" x1="691.8239" y1="-247.5937" x2="266.8239" y2="220.4063">
				<stop  offset="0" style="stop-color:#C20234"/>
				<stop  offset="1" style="stop-color:#FEA711"/>
			</linearGradient>
			<polygon class="st30" points="590.4,-84.8 527.8,-124 533.1,-124 595.7,-84.8 			"/>
			<linearGradient id="SVGID_35_" gradientUnits="userSpaceOnUse" x1="688.9224" y1="-250.2286" x2="263.9224" y2="217.7714">
				<stop  offset="0" style="stop-color:#C20234"/>
				<stop  offset="1" style="stop-color:#FEA711"/>
			</linearGradient>
			<polygon class="st31" points="585.2,-84.8 522.5,-124 527.8,-124 590.4,-84.8 			"/>
			<linearGradient id="SVGID_36_" gradientUnits="userSpaceOnUse" x1="686.0209" y1="-252.8636" x2="261.0208" y2="215.1364">
				<stop  offset="0" style="stop-color:#C20234"/>
				<stop  offset="1" style="stop-color:#FEA711"/>
			</linearGradient>
			<polygon class="st32" points="579.9,-84.8 517.2,-124 522.5,-124 585.2,-84.8 			"/>
			<linearGradient id="SVGID_37_" gradientUnits="userSpaceOnUse" x1="683.1193" y1="-255.4985" x2="258.1193" y2="212.5015">
				<stop  offset="0" style="stop-color:#C20234"/>
				<stop  offset="1" style="stop-color:#FEA711"/>
			</linearGradient>
			<polygon class="st33" points="574.6,-84.8 511.9,-124 517.2,-124 579.9,-84.8 			"/>
			<linearGradient id="SVGID_38_" gradientUnits="userSpaceOnUse" x1="680.2178" y1="-258.1334" x2="255.2178" y2="209.8666">
				<stop  offset="0" style="stop-color:#C20234"/>
				<stop  offset="1" style="stop-color:#FEA711"/>
			</linearGradient>
			<polygon class="st34" points="569.3,-84.8 506.6,-124 511.9,-124 574.6,-84.8 			"/>
			<linearGradient id="SVGID_39_" gradientUnits="userSpaceOnUse" x1="677.5198" y1="-260.5835" x2="252.5198" y2="207.4165">
				<stop  offset="0" style="stop-color:#C20234"/>
				<stop  offset="1" style="stop-color:#FEA711"/>
			</linearGradient>
			<polygon class="st35" points="564,-84.8 502.1,-123.5 502.1,-124 506.6,-124 569.3,-84.8 			"/>
			<linearGradient id="SVGID_40_" gradientUnits="userSpaceOnUse" x1="676.1848" y1="-261.7958" x2="251.1848" y2="206.2042">
				<stop  offset="0" style="stop-color:#C20234"/>
				<stop  offset="1" style="stop-color:#FEA711"/>
			</linearGradient>
			<polygon class="st36" points="558.7,-84.8 502.1,-120.2 502.1,-123.5 564,-84.8 			"/>
			<linearGradient id="SVGID_41_" gradientUnits="userSpaceOnUse" x1="675.5591" y1="-262.3641" x2="250.5591" y2="205.6359">
				<stop  offset="0" style="stop-color:#C20234"/>
				<stop  offset="1" style="stop-color:#FEA711"/>
			</linearGradient>
			<polygon class="st37" points="553.4,-84.8 502.1,-116.9 502.1,-120.2 558.7,-84.8 			"/>
			<linearGradient id="SVGID_42_" gradientUnits="userSpaceOnUse" x1="674.9333" y1="-262.9323" x2="249.9333" y2="205.0677">
				<stop  offset="0" style="stop-color:#C20234"/>
				<stop  offset="1" style="stop-color:#FEA711"/>
			</linearGradient>
			<polygon class="st38" points="548.1,-84.8 502.1,-113.6 502.1,-116.9 553.4,-84.8 			"/>
			<linearGradient id="SVGID_43_" gradientUnits="userSpaceOnUse" x1="674.3076" y1="-263.5006" x2="249.3076" y2="204.4994">
				<stop  offset="0" style="stop-color:#C20234"/>
				<stop  offset="1" style="stop-color:#FEA711"/>
			</linearGradient>
			<polygon class="st39" points="542.8,-84.8 502.1,-110.3 502.1,-113.6 548.1,-84.8 			"/>
			<linearGradient id="SVGID_44_" gradientUnits="userSpaceOnUse" x1="673.6818" y1="-264.0688" x2="248.6818" y2="203.9312">
				<stop  offset="0" style="stop-color:#C20234"/>
				<stop  offset="1" style="stop-color:#FEA711"/>
			</linearGradient>
			<polygon class="st40" points="537.5,-84.8 502.1,-107 502.1,-110.3 542.8,-84.8 			"/>
			<linearGradient id="SVGID_45_" gradientUnits="userSpaceOnUse" x1="673.0561" y1="-264.6371" x2="248.0561" y2="203.3629">
				<stop  offset="0" style="stop-color:#C20234"/>
				<stop  offset="1" style="stop-color:#FEA711"/>
			</linearGradient>
			<polygon class="st41" points="532.2,-84.8 502.1,-103.6 502.1,-107 537.5,-84.8 			"/>
			<linearGradient id="SVGID_46_" gradientUnits="userSpaceOnUse" x1="672.4304" y1="-265.2054" x2="247.4303" y2="202.7947">
				<stop  offset="0" style="stop-color:#C20234"/>
				<stop  offset="1" style="stop-color:#FEA711"/>
			</linearGradient>
			<polygon class="st42" points="526.9,-84.8 502.1,-100.3 502.1,-103.6 532.2,-84.8 			"/>
			<linearGradient id="SVGID_47_" gradientUnits="userSpaceOnUse" x1="671.8046" y1="-265.7736" x2="246.8046" y2="202.2264">
				<stop  offset="0" style="stop-color:#C20234"/>
				<stop  offset="1" style="stop-color:#FEA711"/>
			</linearGradient>
			<polygon class="st43" points="521.6,-84.8 502.1,-97 502.1,-100.3 526.9,-84.8 			"/>
			<linearGradient id="SVGID_48_" gradientUnits="userSpaceOnUse" x1="671.1788" y1="-266.3419" x2="246.1789" y2="201.6582">
				<stop  offset="0" style="stop-color:#C20234"/>
				<stop  offset="1" style="stop-color:#FEA711"/>
			</linearGradient>
			<polygon class="st44" points="516.3,-84.8 502.1,-93.7 502.1,-97 521.6,-84.8 			"/>
			<linearGradient id="SVGID_49_" gradientUnits="userSpaceOnUse" x1="670.5531" y1="-266.9101" x2="245.5531" y2="201.0899">
				<stop  offset="0" style="stop-color:#C20234"/>
				<stop  offset="1" style="stop-color:#FEA711"/>
			</linearGradient>
			<polygon class="st45" points="511,-84.8 502.1,-90.4 502.1,-93.7 516.3,-84.8 			"/>
			<linearGradient id="SVGID_50_" gradientUnits="userSpaceOnUse" x1="669.9274" y1="-267.4784" x2="244.9274" y2="200.5217">
				<stop  offset="0" style="stop-color:#C20234"/>
				<stop  offset="1" style="stop-color:#FEA711"/>
			</linearGradient>
			<polygon class="st46" points="505.7,-84.8 502.1,-87.1 502.1,-90.4 511,-84.8 			"/>
			<linearGradient id="SVGID_51_" gradientUnits="userSpaceOnUse" x1="669.3016" y1="-268.0466" x2="244.3016" y2="199.9534">
				<stop  offset="0" style="stop-color:#C20234"/>
				<stop  offset="1" style="stop-color:#FEA711"/>
			</linearGradient>
			<polygon class="st47" points="502.1,-87.1 505.7,-84.8 502.1,-84.8 			"/>
			<linearGradient id="SVGID_52_" gradientUnits="userSpaceOnUse" x1="748.237" y1="-196.3638" x2="323.237" y2="271.6362">
				<stop  offset="0" style="stop-color:#C20234"/>
				<stop  offset="1" style="stop-color:#FEA711"/>
			</linearGradient>
			<polygon class="st48" points="694.2,-119.3 673.9,-132 694.2,-132 			"/>
			<linearGradient id="SVGID_53_" gradientUnits="userSpaceOnUse" x1="747.6113" y1="-196.9321" x2="322.6113" y2="271.0679">
				<stop  offset="0" style="stop-color:#C20234"/>
				<stop  offset="1" style="stop-color:#FEA711"/>
			</linearGradient>
			<polygon class="st49" points="694.2,-116 668.6,-132 673.9,-132 694.2,-119.3 			"/>
			<linearGradient id="SVGID_54_" gradientUnits="userSpaceOnUse" x1="746.9855" y1="-197.5003" x2="321.9855" y2="270.4997">
				<stop  offset="0" style="stop-color:#C20234"/>
				<stop  offset="1" style="stop-color:#FEA711"/>
			</linearGradient>
			<polygon class="st50" points="694.2,-112.7 663.3,-132 668.6,-132 694.2,-116 			"/>
			<linearGradient id="SVGID_55_" gradientUnits="userSpaceOnUse" x1="746.3598" y1="-198.0686" x2="321.3598" y2="269.9314">
				<stop  offset="0" style="stop-color:#C20234"/>
				<stop  offset="1" style="stop-color:#FEA711"/>
			</linearGradient>
			<polygon class="st51" points="694.2,-109.3 658,-132 663.3,-132 694.2,-112.7 			"/>
			<linearGradient id="SVGID_56_" gradientUnits="userSpaceOnUse" x1="745.102" y1="-199.2108" x2="320.102" y2="268.7892">
				<stop  offset="0" style="stop-color:#C20234"/>
				<stop  offset="1" style="stop-color:#FEA711"/>
			</linearGradient>
			<polygon class="st52" points="694.2,-109.3 692.7,-106.9 652.7,-132 658,-132 694.2,-109.3 			"/>
			<linearGradient id="SVGID_57_" gradientUnits="userSpaceOnUse" x1="743.8351" y1="-200.3612" x2="318.8352" y2="267.6388">
				<stop  offset="0" style="stop-color:#C20234"/>
				<stop  offset="1" style="stop-color:#FEA711"/>
			</linearGradient>
			<polygon class="st53" points="692.7,-106.9 691.2,-104.6 647.4,-132 652.7,-132 			"/>
			<linearGradient id="SVGID_58_" gradientUnits="userSpaceOnUse" x1="742.5684" y1="-201.5116" x2="317.5684" y2="266.4884">
				<stop  offset="0" style="stop-color:#C20234"/>
				<stop  offset="1" style="stop-color:#FEA711"/>
			</linearGradient>
			<polygon class="st54" points="691.2,-104.6 689.7,-102.2 642.1,-132 647.4,-132 			"/>
			<linearGradient id="SVGID_59_" gradientUnits="userSpaceOnUse" x1="741.3016" y1="-202.662" x2="316.3016" y2="265.338">
				<stop  offset="0" style="stop-color:#C20234"/>
				<stop  offset="1" style="stop-color:#FEA711"/>
			</linearGradient>
			<polygon class="st55" points="689.7,-102.2 688.2,-99.8 636.8,-132 642.1,-132 			"/>
			<linearGradient id="SVGID_60_" gradientUnits="userSpaceOnUse" x1="740.0348" y1="-203.8124" x2="315.0348" y2="264.1876">
				<stop  offset="0" style="stop-color:#C20234"/>
				<stop  offset="1" style="stop-color:#FEA711"/>
			</linearGradient>
			<polygon class="st56" points="688.2,-99.8 686.7,-97.4 631.5,-132 636.8,-132 			"/>
			<linearGradient id="SVGID_61_" gradientUnits="userSpaceOnUse" x1="738.768" y1="-204.9628" x2="313.768" y2="263.0372">
				<stop  offset="0" style="stop-color:#C20234"/>
				<stop  offset="1" style="stop-color:#FEA711"/>
			</linearGradient>
			<polygon class="st57" points="686.7,-97.4 685.2,-95 626.2,-132 631.5,-132 			"/>
			<linearGradient id="SVGID_62_" gradientUnits="userSpaceOnUse" x1="737.5012" y1="-206.1132" x2="312.5012" y2="261.8868">
				<stop  offset="0" style="stop-color:#C20234"/>
				<stop  offset="1" style="stop-color:#FEA711"/>
			</linearGradient>
			<polygon class="st58" points="685.2,-95 683.7,-92.7 620.9,-132 626.2,-132 			"/>
			<linearGradient id="SVGID_63_" gradientUnits="userSpaceOnUse" x1="736.2344" y1="-207.2636" x2="311.2344" y2="260.7364">
				<stop  offset="0" style="stop-color:#C20234"/>
				<stop  offset="1" style="stop-color:#FEA711"/>
			</linearGradient>
			<polygon class="st59" points="683.7,-92.7 682.3,-90.3 615.6,-132 620.9,-132 			"/>
			<linearGradient id="SVGID_64_" gradientUnits="userSpaceOnUse" x1="734.9676" y1="-208.414" x2="309.9676" y2="259.586">
				<stop  offset="0" style="stop-color:#C20234"/>
				<stop  offset="1" style="stop-color:#FEA711"/>
			</linearGradient>
			<polygon class="st60" points="682.3,-90.3 680.8,-87.9 610.3,-132 615.6,-132 			"/>
			<linearGradient id="SVGID_65_" gradientUnits="userSpaceOnUse" x1="733.7008" y1="-209.5644" x2="308.7008" y2="258.4356">
				<stop  offset="0" style="stop-color:#C20234"/>
				<stop  offset="1" style="stop-color:#FEA711"/>
			</linearGradient>
			<polygon class="st61" points="680.8,-87.9 679.3,-85.5 605,-132 610.3,-132 			"/>
			<linearGradient id="SVGID_66_" gradientUnits="userSpaceOnUse" x1="732.434" y1="-210.7148" x2="307.434" y2="257.2852">
				<stop  offset="0" style="stop-color:#C20234"/>
				<stop  offset="1" style="stop-color:#FEA711"/>
			</linearGradient>
			<polygon class="st62" points="679.3,-85.5 677.8,-83.1 599.7,-132 605,-132 			"/>
			<linearGradient id="SVGID_67_" gradientUnits="userSpaceOnUse" x1="731.1672" y1="-211.8652" x2="306.1672" y2="256.1348">
				<stop  offset="0" style="stop-color:#C20234"/>
				<stop  offset="1" style="stop-color:#FEA711"/>
			</linearGradient>
			<polygon class="st63" points="677.8,-83.1 676.3,-80.8 594.5,-132 599.7,-132 			"/>
			<linearGradient id="SVGID_68_" gradientUnits="userSpaceOnUse" x1="729.9005" y1="-213.0156" x2="304.9005" y2="254.9844">
				<stop  offset="0" style="stop-color:#C20234"/>
				<stop  offset="1" style="stop-color:#FEA711"/>
			</linearGradient>
			<polygon class="st64" points="676.3,-80.8 674.8,-78.4 589.2,-132 594.5,-132 			"/>
			<linearGradient id="SVGID_69_" gradientUnits="userSpaceOnUse" x1="728.5728" y1="-214.2213" x2="303.5728" y2="253.7787">
				<stop  offset="0" style="stop-color:#C20234"/>
				<stop  offset="1" style="stop-color:#FEA711"/>
			</linearGradient>
			<polygon class="st65" points="674.8,-78.4 673.8,-76.8 672,-76.8 583.9,-132 589.2,-132 			"/>
			<linearGradient id="SVGID_70_" gradientUnits="userSpaceOnUse" x1="726.6422" y1="-215.9746" x2="301.6421" y2="252.0254">
				<stop  offset="0" style="stop-color:#C20234"/>
				<stop  offset="1" style="stop-color:#FEA711"/>
			</linearGradient>
			<polygon class="st66" points="666.8,-76.8 578.6,-132 583.9,-132 672,-76.8 			"/>
			<linearGradient id="SVGID_71_" gradientUnits="userSpaceOnUse" x1="723.7406" y1="-218.6095" x2="298.7406" y2="249.3905">
				<stop  offset="0" style="stop-color:#C20234"/>
				<stop  offset="1" style="stop-color:#FEA711"/>
			</linearGradient>
			<polygon class="st67" points="661.5,-76.8 573.3,-132 578.6,-132 666.8,-76.8 			"/>
			<linearGradient id="SVGID_72_" gradientUnits="userSpaceOnUse" x1="720.8391" y1="-221.2444" x2="295.8391" y2="246.7556">
				<stop  offset="0" style="stop-color:#C20234"/>
				<stop  offset="1" style="stop-color:#FEA711"/>
			</linearGradient>
			<polygon class="st68" points="656.2,-76.8 568,-132 573.3,-132 661.5,-76.8 			"/>
			<linearGradient id="SVGID_73_" gradientUnits="userSpaceOnUse" x1="717.9376" y1="-223.8793" x2="292.9376" y2="244.1207">
				<stop  offset="0" style="stop-color:#C20234"/>
				<stop  offset="1" style="stop-color:#FEA711"/>
			</linearGradient>
			<polygon class="st69" points="650.9,-76.8 562.7,-132 568,-132 656.2,-76.8 			"/>
			<linearGradient id="SVGID_74_" gradientUnits="userSpaceOnUse" x1="715.0361" y1="-226.5143" x2="290.036" y2="241.4857">
				<stop  offset="0" style="stop-color:#C20234"/>
				<stop  offset="1" style="stop-color:#FEA711"/>
			</linearGradient>
			<polygon class="st70" points="645.6,-76.8 557.4,-132 562.7,-132 650.9,-76.8 			"/>
			<linearGradient id="SVGID_75_" gradientUnits="userSpaceOnUse" x1="712.1345" y1="-229.1492" x2="287.1345" y2="238.8508">
				<stop  offset="0" style="stop-color:#C20234"/>
				<stop  offset="1" style="stop-color:#FEA711"/>
			</linearGradient>
			<polygon class="st71" points="640.3,-76.8 552.1,-132 557.4,-132 645.6,-76.8 			"/>
			<linearGradient id="SVGID_76_" gradientUnits="userSpaceOnUse" x1="709.233" y1="-231.7841" x2="284.233" y2="236.2159">
				<stop  offset="0" style="stop-color:#C20234"/>
				<stop  offset="1" style="stop-color:#FEA711"/>
			</linearGradient>
			<polygon class="st72" points="635,-76.8 546.8,-132 552.1,-132 640.3,-76.8 			"/>
			<linearGradient id="SVGID_77_" gradientUnits="userSpaceOnUse" x1="706.3315" y1="-234.4191" x2="281.3315" y2="233.5809">
				<stop  offset="0" style="stop-color:#C20234"/>
				<stop  offset="1" style="stop-color:#FEA711"/>
			</linearGradient>
			<polygon class="st73" points="629.7,-76.8 541.5,-132 546.8,-132 635,-76.8 			"/>
			<linearGradient id="SVGID_78_" gradientUnits="userSpaceOnUse" x1="703.43" y1="-237.054" x2="278.43" y2="230.946">
				<stop  offset="0" style="stop-color:#C20234"/>
				<stop  offset="1" style="stop-color:#FEA711"/>
			</linearGradient>
			<polygon class="st74" points="624.4,-76.8 536.2,-132 541.5,-132 629.7,-76.8 			"/>
			<linearGradient id="SVGID_79_" gradientUnits="userSpaceOnUse" x1="700.5284" y1="-239.6889" x2="275.5284" y2="228.3111">
				<stop  offset="0" style="stop-color:#C20234"/>
				<stop  offset="1" style="stop-color:#FEA711"/>
			</linearGradient>
			<polygon class="st75" points="619.1,-76.8 530.9,-132 536.2,-132 624.4,-76.8 			"/>
			<linearGradient id="SVGID_80_" gradientUnits="userSpaceOnUse" x1="697.627" y1="-242.3238" x2="272.6269" y2="225.6762">
				<stop  offset="0" style="stop-color:#C20234"/>
				<stop  offset="1" style="stop-color:#FEA711"/>
			</linearGradient>
			<polygon class="st76" points="613.8,-76.8 525.6,-132 530.9,-132 619.1,-76.8 			"/>
			<linearGradient id="SVGID_81_" gradientUnits="userSpaceOnUse" x1="694.7254" y1="-244.9588" x2="269.7254" y2="223.0412">
				<stop  offset="0" style="stop-color:#C20234"/>
				<stop  offset="1" style="stop-color:#FEA711"/>
			</linearGradient>
			<polygon class="st77" points="608.5,-76.8 520.3,-132 525.6,-132 613.8,-76.8 			"/>
			<linearGradient id="SVGID_82_" gradientUnits="userSpaceOnUse" x1="691.8239" y1="-247.5937" x2="266.8239" y2="220.4063">
				<stop  offset="0" style="stop-color:#C20234"/>
				<stop  offset="1" style="stop-color:#FEA711"/>
			</linearGradient>
			<polygon class="st78" points="603.2,-76.8 515,-132 520.3,-132 608.5,-76.8 			"/>
			<linearGradient id="SVGID_83_" gradientUnits="userSpaceOnUse" x1="688.9224" y1="-250.2286" x2="263.9224" y2="217.7714">
				<stop  offset="0" style="stop-color:#C20234"/>
				<stop  offset="1" style="stop-color:#FEA711"/>
			</linearGradient>
			<polygon class="st79" points="597.9,-76.8 509.7,-132 515,-132 603.2,-76.8 			"/>
			<linearGradient id="SVGID_84_" gradientUnits="userSpaceOnUse" x1="686.0209" y1="-252.8635" x2="261.0208" y2="215.1365">
				<stop  offset="0" style="stop-color:#C20234"/>
				<stop  offset="1" style="stop-color:#FEA711"/>
			</linearGradient>
			<polygon class="st80" points="592.6,-76.8 504.4,-132 509.7,-132 597.9,-76.8 			"/>
			<linearGradient id="SVGID_85_" gradientUnits="userSpaceOnUse" x1="683.1193" y1="-255.4985" x2="258.1193" y2="212.5015">
				<stop  offset="0" style="stop-color:#C20234"/>
				<stop  offset="1" style="stop-color:#FEA711"/>
			</linearGradient>
			<polygon class="st81" points="587.3,-76.8 499.2,-132 504.4,-132 592.6,-76.8 			"/>
			<linearGradient id="SVGID_86_" gradientUnits="userSpaceOnUse" x1="680.2178" y1="-258.1334" x2="255.2178" y2="209.8666">
				<stop  offset="0" style="stop-color:#C20234"/>
				<stop  offset="1" style="stop-color:#FEA711"/>
			</linearGradient>
			<polygon class="st82" points="582,-76.8 493.9,-132 499.2,-132 587.3,-76.8 			"/>
			<linearGradient id="SVGID_87_" gradientUnits="userSpaceOnUse" x1="678.2134" y1="-259.9536" x2="253.2134" y2="208.0464">
				<stop  offset="0" style="stop-color:#C20234"/>
				<stop  offset="1" style="stop-color:#FEA711"/>
			</linearGradient>
			<polygon class="st83" points="576.7,-76.8 491.8,-129.9 491.8,-132 493.9,-132 582,-76.8 			"/>
			<linearGradient id="SVGID_88_" gradientUnits="userSpaceOnUse" x1="677.2728" y1="-260.8078" x2="252.2729" y2="207.1922">
				<stop  offset="0" style="stop-color:#C20234"/>
				<stop  offset="1" style="stop-color:#FEA711"/>
			</linearGradient>
			<polygon class="st84" points="571.5,-76.8 491.8,-126.6 491.8,-129.9 576.7,-76.8 			"/>
			<linearGradient id="SVGID_89_" gradientUnits="userSpaceOnUse" x1="676.6471" y1="-261.376" x2="251.6471" y2="206.624">
				<stop  offset="0" style="stop-color:#C20234"/>
				<stop  offset="1" style="stop-color:#FEA711"/>
			</linearGradient>
			<polygon class="st85" points="566.2,-76.8 491.8,-123.3 491.8,-126.6 571.5,-76.8 			"/>
			<linearGradient id="SVGID_90_" gradientUnits="userSpaceOnUse" x1="676.0214" y1="-261.9443" x2="251.0214" y2="206.0557">
				<stop  offset="0" style="stop-color:#C20234"/>
				<stop  offset="1" style="stop-color:#FEA711"/>
			</linearGradient>
			<polygon class="st86" points="560.9,-76.8 491.8,-120 491.8,-123.3 566.2,-76.8 			"/>
			<linearGradient id="SVGID_91_" gradientUnits="userSpaceOnUse" x1="675.3956" y1="-262.5125" x2="250.3956" y2="205.4875">
				<stop  offset="0" style="stop-color:#C20234"/>
				<stop  offset="1" style="stop-color:#FEA711"/>
			</linearGradient>
			<polygon class="st87" points="555.6,-76.8 491.8,-116.7 491.8,-120 560.9,-76.8 			"/>
			<linearGradient id="SVGID_92_" gradientUnits="userSpaceOnUse" x1="674.7698" y1="-263.0808" x2="249.7699" y2="204.9192">
				<stop  offset="0" style="stop-color:#C20234"/>
				<stop  offset="1" style="stop-color:#FEA711"/>
			</linearGradient>
			<polygon class="st88" points="550.3,-76.8 491.8,-113.4 491.8,-116.7 555.6,-76.8 			"/>
			<linearGradient id="SVGID_93_" gradientUnits="userSpaceOnUse" x1="674.1441" y1="-263.649" x2="249.1441" y2="204.351">
				<stop  offset="0" style="stop-color:#C20234"/>
				<stop  offset="1" style="stop-color:#FEA711"/>
			</linearGradient>
			<polygon class="st89" points="545,-76.8 491.8,-110.1 491.8,-113.4 550.3,-76.8 			"/>
			<linearGradient id="SVGID_94_" gradientUnits="userSpaceOnUse" x1="673.5184" y1="-264.2173" x2="248.5184" y2="203.7827">
				<stop  offset="0" style="stop-color:#C20234"/>
				<stop  offset="1" style="stop-color:#FEA711"/>
			</linearGradient>
			<polygon class="st90" points="539.7,-76.8 491.8,-106.7 491.8,-110.1 545,-76.8 			"/>
			<linearGradient id="SVGID_95_" gradientUnits="userSpaceOnUse" x1="672.8926" y1="-264.7856" x2="247.8926" y2="203.2145">
				<stop  offset="0" style="stop-color:#C20234"/>
				<stop  offset="1" style="stop-color:#FEA711"/>
			</linearGradient>
			<polygon class="st91" points="534.4,-76.8 491.8,-103.4 491.8,-106.7 539.7,-76.8 			"/>
			<linearGradient id="SVGID_96_" gradientUnits="userSpaceOnUse" x1="672.2669" y1="-265.3538" x2="247.2669" y2="202.6462">
				<stop  offset="0" style="stop-color:#C20234"/>
				<stop  offset="1" style="stop-color:#FEA711"/>
			</linearGradient>
			<polygon class="st92" points="529.1,-76.8 491.8,-100.1 491.8,-103.4 534.4,-76.8 			"/>
			<linearGradient id="SVGID_97_" gradientUnits="userSpaceOnUse" x1="671.6411" y1="-265.9221" x2="246.6411" y2="202.078">
				<stop  offset="0" style="stop-color:#C20234"/>
				<stop  offset="1" style="stop-color:#FEA711"/>
			</linearGradient>
			<polygon class="st93" points="523.8,-76.8 491.8,-96.8 491.8,-100.1 529.1,-76.8 			"/>
			<linearGradient id="SVGID_98_" gradientUnits="userSpaceOnUse" x1="671.0154" y1="-266.4903" x2="246.0154" y2="201.5097">
				<stop  offset="0" style="stop-color:#C20234"/>
				<stop  offset="1" style="stop-color:#FEA711"/>
			</linearGradient>
			<polygon class="st94" points="518.5,-76.8 491.8,-93.5 491.8,-96.8 523.8,-76.8 			"/>
			<linearGradient id="SVGID_99_" gradientUnits="userSpaceOnUse" x1="670.3896" y1="-267.0586" x2="245.3896" y2="200.9415">
				<stop  offset="0" style="stop-color:#C20234"/>
				<stop  offset="1" style="stop-color:#FEA711"/>
			</linearGradient>
			<polygon class="st95" points="513.2,-76.8 491.8,-90.2 491.8,-93.5 518.5,-76.8 			"/>
			<linearGradient id="SVGID_100_" gradientUnits="userSpaceOnUse" x1="669.7639" y1="-267.6268" x2="244.7639" y2="200.3732">
				<stop  offset="0" style="stop-color:#C20234"/>
				<stop  offset="1" style="stop-color:#FEA711"/>
			</linearGradient>
			<polygon class="st96" points="507.9,-76.8 491.8,-86.8 491.8,-90.2 513.2,-76.8 			"/>
			<linearGradient id="SVGID_101_" gradientUnits="userSpaceOnUse" x1="669.1381" y1="-268.1951" x2="244.1382" y2="199.8049">
				<stop  offset="0" style="stop-color:#C20234"/>
				<stop  offset="1" style="stop-color:#FEA711"/>
			</linearGradient>
			<polygon class="st97" points="502.6,-76.8 491.8,-83.5 491.8,-86.8 507.9,-76.8 			"/>
			<linearGradient id="SVGID_102_" gradientUnits="userSpaceOnUse" x1="668.5124" y1="-268.7633" x2="243.5124" y2="199.2367">
				<stop  offset="0" style="stop-color:#C20234"/>
				<stop  offset="1" style="stop-color:#FEA711"/>
			</linearGradient>
			<polygon class="st98" points="497.3,-76.8 491.8,-80.2 491.8,-83.5 502.6,-76.8 			"/>
			<linearGradient id="SVGID_103_" gradientUnits="userSpaceOnUse" x1="667.8867" y1="-269.3316" x2="242.8867" y2="198.6684">
				<stop  offset="0" style="stop-color:#C20234"/>
				<stop  offset="1" style="stop-color:#FEA711"/>
			</linearGradient>
			<polygon class="st99" points="492,-76.8 491.8,-76.9 491.8,-80.2 497.3,-76.8 			"/>
			<linearGradient id="SVGID_104_" gradientUnits="userSpaceOnUse" x1="667.2609" y1="-269.8998" x2="242.2609" y2="198.1002">
				<stop  offset="0" style="stop-color:#C20234"/>
				<stop  offset="1" style="stop-color:#FEA711"/>
			</linearGradient>
			<polygon class="st100" points="491.8,-76.9 492,-76.8 491.8,-76.8 			"/>
		</g>
		<linearGradient id="SVGID_105_" gradientUnits="userSpaceOnUse" x1="702.2535" y1="-238.1223" x2="277.2535" y2="229.8777">
			<stop  offset="0" style="stop-color:#C20234"/>
			<stop  offset="1" style="stop-color:#FEA711"/>
		</linearGradient>
		<path class="st101" d="M656.7-73.3H529.3c-11.1,0-21-6.6-25.3-16.8l-14.8-35c-1-2.3-0.7-5,0.7-7.1c1.4-2.1,3.7-3.4,6.3-3.4H690
			c2.5,0,4.9,1.3,6.3,3.4c1.4,2.1,1.6,4.7,0.7,7.1l-14.8,35C677.7-79.9,667.8-73.3,656.7-73.3z M496-128.5c-0.2,0-0.3,0.1-0.4,0.2
			c-0.1,0.1-0.1,0.3,0,0.5l14.8,35c3.2,7.6,10.6,12.5,18.9,12.5h127.4c8.2,0,15.7-4.9,18.9-12.5l14.8-35c0.1-0.2,0-0.3,0-0.5
			c-0.1-0.1-0.3-0.2-0.4-0.2H496z M656.7-81.3H529.3c-7.8,0-14.9-4.7-18-11.9l-14.5-34.3h192.4l-14.5,34.3
			C671.6-85.9,664.5-81.3,656.7-81.3z M507.4-120.5l10.4,24.6c2,4.6,6.5,7.6,11.5,7.6h127.4c5,0,9.5-3,11.5-7.6l10.4-24.6H507.4z"/>
	</g>
</g>
</svg>
