<?xml version="1.0" encoding="utf-8"?>
<!-- Generator: Adobe Illustrator 23.0.3, SVG Export Plug-In . SVG Version: 6.00 Build 0)  -->
<svg version="1.1" id="Layer_1" xmlns="http://www.w3.org/2000/svg" xmlns:xlink="http://www.w3.org/1999/xlink" x="0px" y="0px"
	 viewBox="0 0 512 512" style="enable-background:new 0 0 512 512;" xml:space="preserve">
<style type="text/css">
	.st0{fill:url(#SVGID_1_);}
	.st1{fill:url(#SVGID_2_);}
	.st2{fill:url(#SVGID_3_);}
	.st3{fill:url(#SVGID_4_);}
	.st4{fill:url(#SVGID_5_);}
</style>
<linearGradient id="SVGID_1_" gradientUnits="userSpaceOnUse" x1="597.5228" y1="-15.0121" x2="-110.4771" y2="466.9879">
	<stop  offset="0" style="stop-color:#C20234"/>
	<stop  offset="1" style="stop-color:#FEA711"/>
</linearGradient>
<path class="st0" d="M489.2,35H22.8C10.2,35,0,45.2,0,57.8v113.4c0,4.1,3.4,7.5,7.5,7.5s7.5-3.4,7.5-7.5V57.8c0-4.3,3.5-7.8,7.8-7.8
	h80v36.8h-2.1c-12.6,0-22.9,10.3-22.9,22.9v49.5c0,12.6,10.3,22.9,22.9,22.9h9.7v139.7H15V203.9c0-4.1-3.4-7.5-7.5-7.5
	S0,199.8,0,203.9v176c0,9.8,7.9,17.7,17.7,17.7h97.7c6.2,10.5,17.6,17.5,30.6,17.5s24.4-7,30.6-17.5h13.9v14.3
	c0,6.8,4.2,12.6,10.2,14.9c-3.5,8.4-7.6,15.7-12.4,21.7c-4.2,5.3-5,12.4-2,18.6c3,6.2,9.1,10.1,16,10.1h107.4c6.9,0,13-3.9,16-10.1
	c3-6.1,2.2-13.3-2-18.6c-11.8-14.9-17.8-34.7-20.9-50.9h98.9c4.1,0,7.5-3.4,7.5-7.5c0-4.1-3.4-7.5-7.5-7.5H248.9v-45.9H497v43.2
	c0,1.5-1.2,2.7-2.7,2.7h-59.9c-4.1,0-7.5,3.4-7.5,7.5c0,4.1,3.4,7.5,7.5,7.5h59.9c9.8,0,17.7-7.9,17.7-17.7V57.8
	C512,45.2,501.8,35,489.2,35z M117.8,50h198.4v36.8H117.8V50z M92.9,159.1v-49.5c0-4.3,3.5-7.9,7.9-7.9h240.3c4.3,0,7.9,3.5,7.9,7.9
	v49.5c0,4.3-3.5,7.9-7.9,7.9H234.9c-4.1,0-7.5,3.4-7.5,7.5c0,4.1,3.4,7.5,7.5,7.5h21v39.4H240c-14.6,0-26.5,11.9-26.5,26.5v42.3
	h-6.9c-8.8,0-16,7.2-16,16v15.4h-8.9V182h20.6c4.1,0,7.5-3.4,7.5-7.5c0-4.1-3.4-7.5-7.5-7.5H100.8C96.4,167,92.9,163.5,92.9,159.1z
	 M374.2,119.9v29h-10.3v-29H374.2z M363.4,163.9H375c7.8,0,14.2-6.4,14.2-14.2v-7.8h3.8c6.4,0,11.5,5.2,11.5,11.5v56.5
	c0,6.4-5.2,11.5-11.5,11.5H327V182h14.1C352.1,182,361.2,174.2,363.4,163.9z M270.9,236.4H312v11.9c0,11.3-9.2,20.6-20.6,20.6
	c-11.3,0-20.6-9.2-20.6-20.6V236.4z M270.9,221.4V182H312v39.4H270.9z M206.5,412.9c-0.6,0-1-0.4-1-1V401h8.5c4.1,0,7.5-3.4,7.5-7.5
	c0-4.1-3.4-7.5-7.5-7.5h-8.5v-8h8.5c4.1,0,7.5-3.4,7.5-7.5c0-4.1-3.4-7.5-7.5-7.5h-8.5v-8h8.5c4.1,0,7.5-3.4,7.5-7.5
	c0-4.1-3.4-7.5-7.5-7.5h-8.5v-8h8.5c4.1,0,7.5-3.4,7.5-7.5s-3.4-7.5-7.5-7.5h-8.5v-10.8c0-0.6,0.4-1,1-1h26.4c0.6,0,1,0.5,1,1v105.6
	c0,0.6-0.4,1-1,1H206.5z M17.7,382.6c-1.5,0-2.7-1.2-2.7-2.7v-43.2h95.5v42.9c0,1,0.1,2.1,0.1,3.1H17.7z M146,400.1
	c-11.3,0-20.6-9.2-20.6-20.6V182h41.1v197.5C166.6,390.9,157.4,400.1,146,400.1z M181.5,382.6c0.1-1,0.1-2,0.1-3.1v-42.9h8.9v45.9
	H181.5z M287.6,397.6c3.2,18.4,10,42.1,24.3,60.2c0.8,1,0.6,2.1,0.3,2.7c-0.2,0.5-0.9,1.6-2.5,1.6H202.3c-1.6,0-2.3-1.1-2.5-1.6
	c-0.3-0.7-0.5-1.7,0.3-2.7c6.5-8.2,12-18.3,16.3-29.9h16.5c8.8,0,16-7.2,16-16v-14.3H287.6z M248.9,321.6v-15.4c0-8.8-7.2-16-16-16
	h-4.5V248c0-6.4,5.2-11.5,11.5-11.5h15.9v11.9c0,19.6,16,35.6,35.6,35.6s35.6-16,35.6-35.6v-11.9H393c14.6,0,26.5-11.9,26.5-26.5
	v-56.5c0-14.6-11.9-26.5-26.5-26.5h-3.8v-7.8c0-7.8-6.4-14.2-14.2-14.2h-11.5c-2.2-10.3-11.4-18.1-22.4-18.1h-9.8V50h157.9
	c4.3,0,7.8,3.5,7.8,7.8v263.8H248.9z"/>
<linearGradient id="SVGID_2_" gradientUnits="userSpaceOnUse" x1="540.2399" y1="-99.1539" x2="-167.7601" y2="382.8461">
	<stop  offset="0" style="stop-color:#C20234"/>
	<stop  offset="1" style="stop-color:#FEA711"/>
</linearGradient>
<path class="st1" d="M337.9,118.4c0-4.1-3.4-7.5-7.5-7.5H111c-4.1,0-7.5,3.4-7.5,7.5c0,4.1,3.4,7.5,7.5,7.5h219.3
	C334.5,125.9,337.9,122.5,337.9,118.4z"/>
<linearGradient id="SVGID_3_" gradientUnits="userSpaceOnUse" x1="661.5455" y1="79.0296" x2="-46.4545" y2="561.0295">
	<stop  offset="0" style="stop-color:#C20234"/>
	<stop  offset="1" style="stop-color:#FEA711"/>
</linearGradient>
<path class="st2" d="M412,260.3h-55.6c-4.1,0-7.5,3.4-7.5,7.5c0,4.1,3.4,7.5,7.5,7.5H412c4.1,0,7.5-3.4,7.5-7.5
	C419.5,263.7,416.1,260.3,412,260.3z"/>
<linearGradient id="SVGID_4_" gradientUnits="userSpaceOnUse" x1="676.6442" y1="101.2077" x2="-31.3558" y2="583.2076">
	<stop  offset="0" style="stop-color:#C20234"/>
	<stop  offset="1" style="stop-color:#FEA711"/>
</linearGradient>
<path class="st3" d="M412,283.3h-27.8c-4.1,0-7.5,3.4-7.5,7.5s3.4,7.5,7.5,7.5H412c4.1,0,7.5-3.4,7.5-7.5S416.1,283.3,412,283.3z"/>
<linearGradient id="SVGID_5_" gradientUnits="userSpaceOnUse" x1="576.6271" y1="-45.7055" x2="-131.3729" y2="436.2945">
	<stop  offset="0" style="stop-color:#C20234"/>
	<stop  offset="1" style="stop-color:#FEA711"/>
</linearGradient>
<path class="st4" d="M412,68.3h-27.8c-4.1,0-7.5,3.4-7.5,7.5s3.4,7.5,7.5,7.5H412c4.1,0,7.5-3.4,7.5-7.5S416.1,68.3,412,68.3z"/>
</svg>
