<?xml version="1.0" encoding="utf-8"?>
<!-- Generator: Adobe Illustrator 23.0.3, SVG Export Plug-In . SVG Version: 6.00 Build 0)  -->
<svg version="1.1" id="Layer_1" xmlns="http://www.w3.org/2000/svg" xmlns:xlink="http://www.w3.org/1999/xlink" x="0px" y="0px"
	 viewBox="0 0 512 512" style="enable-background:new 0 0 512 512;" xml:space="preserve">
<style type="text/css">
	.st0{fill:url(#SVGID_1_);}
</style>
<linearGradient id="SVGID_1_" gradientUnits="userSpaceOnUse" x1="79.4871" y1="446.7834" x2="-15.9871" y2="542.2586" gradientTransform="matrix(4 0 0 -4 129 2185)">
	<stop  offset="0" style="stop-color:#C20234"/>
	<stop  offset="1" style="stop-color:#FEA711"/>
</linearGradient>
<path class="st0" d="M505,76.9h-69.2V47.1c0-8.3-6.7-15.1-15.1-15.1h-133c-8.3,0-15.1,6.7-15.1,15.1v29.8H7c-3.9,0-7,3.1-7,7v246
	c0,3.9,3.1,7,7,7h193v84h-19.2c-2,0-3.9,0.9-5.2,2.3l-20,22.5c-1.1,1.3-1.8,2.9-1.8,4.7v22.5c0,3.9,3.1,7,7,7l0,0h190.5
	c3.9,0,7-3.1,7-7l0,0v-22.5c0-1.7-0.6-3.4-1.8-4.7l-20-22.5c-1.3-1.5-3.2-2.3-5.2-2.3H312v-15.6c0-3.9-3.1-7-7-7s-7,3.1-7,7v15.6
	h-84v-84h15.3v36.8c0,14.8,12,26.8,26.7,26.8c14.8,0,26.8-12,26.8-26.8v-36.7H298v33.8c0,3.9,3.1,7,7,7s7-3.1,7-7v-33.8h193
	c3.9,0,7-3.1,7-7v-246C512,80.1,508.9,76.9,505,76.9L505,76.9z M305,434.9h23.1l16.2,18.2v12.8H167.8v-12.8l16.2-18.2H305z
	 M287.7,282.9c-0.6,0-1.1-0.5-1.1-1.1v-31.7h135.1v31.7c0,0.6-0.5,1.1-1.1,1.1L287.7,282.9z M343.1,213.1c3.1,2.3,7.5,1.6,9.8-1.5
	l17.8-24.5c1.8-2.5,1.8-5.8,0-8.2l-17.8-24.5c-2.3-3.1-6.7-3.8-9.8-1.5c-3.1,2.3-3.8,6.7-1.5,9.8l9.7,13.4h-64.6v-85h135.1v145.3
	H286.7v-46.3h64.6l-9.7,13.4C339.3,206.4,339.9,210.8,343.1,213.1C343.1,213.1,343.1,213.1,343.1,213.1L343.1,213.1z M435.8,281.9
	v-151H458v152h-22.3C435.8,282.6,435.8,282.2,435.8,281.9L435.8,281.9z M286.7,47.1c0-0.6,0.5-1.1,1.1-1.1h133
	c0.6,0,1.1,0.5,1.1,1.1v29.8H286.7V47.1z M268.8,373.7c-0.1,7-5.9,12.6-13,12.5c-6.9-0.1-12.4-5.7-12.5-12.5v-36.8h25.5V373.7z
	 M498,322.9H14v-232h258.7v26H47c-3.9,0-7,3.1-7,7v166c0,3.9,3.1,7,7,7h60.5c3.9,0,7-3.1,7-7s-3.1-7-7-7H54v-152h218.7v45H158.3
	l9.7-13.4c2.3-3.1,1.6-7.5-1.5-9.8c-3.1-2.3-7.5-1.6-9.8,1.5l-17.8,24.5c-1.8,2.5-1.8,5.8,0,8.2l17.8,24.5c2.3,3.1,6.7,3.8,9.8,1.5
	c3.1-2.3,3.8-6.7,1.5-9.8l-9.7-13.4h114.4c0,0,0,92.7,0,93h-93.2c-3.9,0-7,3.1-7,7s3.1,7,7,7H465c3.9,0,7-3.1,7-7v-166
	c0-3.9-3.1-7-7-7h-29.2v-26H498V322.9z M376,266.6c0,3.9-3.1,7-7,7h-29.5c-3.9,0-7-3.1-7-7s3.1-7,7-7H369
	C372.8,259.6,376,262.7,376,266.6z M416.9,62.5c0,3.9-3.1,7-7,7h-8.3c-3.9,0-7-3.1-7-7s3.1-7,7-7h8.3
	C413.8,55.5,416.9,58.6,416.9,62.5L416.9,62.5z M155,289.9c0,3.9-3.1,7-7,7h-9c-3.9,0-7-3.1-7-7s3.1-7,7-7h9
	C151.9,282.9,155,286.1,155,289.9z"/>
</svg>
