<?xml version="1.0" encoding="utf-8"?>
<!-- Generator: Adobe Illustrator 23.0.3, SVG Export Plug-In . SVG Version: 6.00 Build 0)  -->
<svg version="1.1" id="Layer_1" xmlns="http://www.w3.org/2000/svg" xmlns:xlink="http://www.w3.org/1999/xlink" x="0px" y="0px"
	 viewBox="0 0 600 600" style="enable-background:new 0 0 600 600;" xml:space="preserve">
<style type="text/css">
	.st0{fill:url(#SVGID_1_);}
	.st1{fill:url(#SVGID_2_);}
	.st2{fill:url(#SVGID_3_);}
	.st3{fill:url(#SVGID_4_);}
	.st4{fill:url(#SVGID_5_);}
	.st5{fill:url(#SVGID_6_);}
	.st6{fill:url(#SVGID_7_);}
	.st7{fill:url(#SVGID_8_);}
	.st8{fill:url(#SVGID_9_);}
	.st9{fill:url(#SVGID_10_);}
	.st10{fill:url(#SVGID_11_);}
	.st11{fill:url(#SVGID_12_);}
	.st12{fill:url(#SVGID_13_);}
	.st13{fill:url(#SVGID_14_);}
	.st14{fill:url(#SVGID_15_);}
	.st15{fill:url(#SVGID_16_);}
	.st16{fill:url(#SVGID_17_);}
	.st17{fill:url(#SVGID_18_);}
	.st18{fill:url(#SVGID_19_);}
	.st19{fill:url(#SVGID_20_);}
	.st20{fill:url(#SVGID_21_);}
	.st21{fill:url(#SVGID_22_);}
	.st22{fill:url(#SVGID_23_);}
	.st23{fill:url(#SVGID_24_);}
	.st24{fill:url(#SVGID_25_);}
	.st25{fill:url(#SVGID_26_);}
	.st26{fill:url(#SVGID_27_);}
	.st27{fill:url(#SVGID_28_);}
	.st28{fill:url(#SVGID_29_);}
	.st29{fill:url(#SVGID_30_);}
	.st30{fill:url(#SVGID_31_);}
	.st31{fill:url(#SVGID_32_);}
	.st32{fill:url(#SVGID_33_);}
	.st33{fill:url(#SVGID_34_);}
	.st34{fill:url(#SVGID_35_);}
	.st35{fill:url(#SVGID_36_);}
	.st36{fill:url(#SVGID_37_);}
	.st37{fill:url(#SVGID_38_);}
	.st38{fill:url(#SVGID_39_);}
	.st39{fill:url(#SVGID_40_);}
	.st40{clip-path:url(#SVGID_42_);}
</style>
<linearGradient id="SVGID_1_" gradientUnits="userSpaceOnUse" x1="133.2275" y1="474.0507" x2="133.2275" y2="474.0507">
	<stop  offset="0" style="stop-color:#C20234"/>
	<stop  offset="1" style="stop-color:#FEA711"/>
</linearGradient>
<path class="st0" d="M133.2,474.1"/>
<linearGradient id="SVGID_2_" gradientUnits="userSpaceOnUse" x1="622.6917" y1="531.6579" x2="22.5151" y2="299.3914">
	<stop  offset="0" style="stop-color:#C20234"/>
	<stop  offset="1" style="stop-color:#FEA711"/>
</linearGradient>
<path class="st1" d="M579,371.9c0,137.1-126.8,282.5-412.7,173.5C35.8,495.7,24,450.7,24,313.6s196.6-220.4,254.9-39.3
	C320.9,405.1,579,290.8,579,371.9z"/>
<linearGradient id="SVGID_3_" gradientUnits="userSpaceOnUse" x1="504.6895" y1="72.5829" x2="168.6356" y2="221.115">
	<stop  offset="0" style="stop-color:#C20234"/>
	<stop  offset="1" style="stop-color:#FEA711"/>
</linearGradient>
<ellipse class="st2" cx="317.7" cy="155.2" rx="5.2" ry="5.1"/>
<linearGradient id="SVGID_4_" gradientUnits="userSpaceOnUse" x1="507.9156" y1="79.734" x2="171.8618" y2="228.2661">
	<stop  offset="0" style="stop-color:#C20234"/>
	<stop  offset="1" style="stop-color:#FEA711"/>
</linearGradient>
<ellipse class="st3" cx="337.1" cy="155.2" rx="5.2" ry="5.1"/>
<linearGradient id="SVGID_5_" gradientUnits="userSpaceOnUse" x1="511.1418" y1="86.8851" x2="175.088" y2="235.4172">
	<stop  offset="0" style="stop-color:#C20234"/>
	<stop  offset="1" style="stop-color:#FEA711"/>
</linearGradient>
<ellipse class="st4" cx="356.5" cy="155.2" rx="5.2" ry="5.1"/>
<linearGradient id="SVGID_6_" gradientUnits="userSpaceOnUse" x1="514.368" y1="94.0362" x2="178.3142" y2="242.5683">
	<stop  offset="0" style="stop-color:#C20234"/>
	<stop  offset="1" style="stop-color:#FEA711"/>
</linearGradient>
<ellipse class="st5" cx="375.9" cy="155.2" rx="5.2" ry="5.1"/>
<linearGradient id="SVGID_7_" gradientUnits="userSpaceOnUse" x1="517.5942" y1="101.1873" x2="181.5404" y2="249.7194">
	<stop  offset="0" style="stop-color:#C20234"/>
	<stop  offset="1" style="stop-color:#FEA711"/>
</linearGradient>
<ellipse class="st6" cx="395.3" cy="155.2" rx="5.2" ry="5.1"/>
<linearGradient id="SVGID_8_" gradientUnits="userSpaceOnUse" x1="520.8204" y1="108.3385" x2="184.7666" y2="256.8705">
	<stop  offset="0" style="stop-color:#C20234"/>
	<stop  offset="1" style="stop-color:#FEA711"/>
</linearGradient>
<ellipse class="st7" cx="414.7" cy="155.2" rx="5.2" ry="5.1"/>
<linearGradient id="SVGID_9_" gradientUnits="userSpaceOnUse" x1="524.0466" y1="115.4896" x2="187.9928" y2="264.0217">
	<stop  offset="0" style="stop-color:#C20234"/>
	<stop  offset="1" style="stop-color:#FEA711"/>
</linearGradient>
<ellipse class="st8" cx="434.1" cy="155.2" rx="5.2" ry="5.1"/>
<linearGradient id="SVGID_10_" gradientUnits="userSpaceOnUse" x1="527.2728" y1="122.6407" x2="191.219" y2="271.1728">
	<stop  offset="0" style="stop-color:#C20234"/>
	<stop  offset="1" style="stop-color:#FEA711"/>
</linearGradient>
<ellipse class="st9" cx="453.5" cy="155.2" rx="5.2" ry="5.1"/>
<linearGradient id="SVGID_11_" gradientUnits="userSpaceOnUse" x1="510.4103" y1="85.255" x2="174.3565" y2="233.7871">
	<stop  offset="0" style="stop-color:#C20234"/>
	<stop  offset="1" style="stop-color:#FEA711"/>
</linearGradient>
<ellipse class="st10" cx="317.7" cy="170.4" rx="5.2" ry="5.1"/>
<linearGradient id="SVGID_12_" gradientUnits="userSpaceOnUse" x1="513.6365" y1="92.4062" x2="177.5827" y2="240.9382">
	<stop  offset="0" style="stop-color:#C20234"/>
	<stop  offset="1" style="stop-color:#FEA711"/>
</linearGradient>
<ellipse class="st11" cx="337.1" cy="170.4" rx="5.2" ry="5.1"/>
<linearGradient id="SVGID_13_" gradientUnits="userSpaceOnUse" x1="516.8627" y1="99.5573" x2="180.8089" y2="248.0894">
	<stop  offset="0" style="stop-color:#C20234"/>
	<stop  offset="1" style="stop-color:#FEA711"/>
</linearGradient>
<ellipse class="st12" cx="356.5" cy="170.4" rx="5.2" ry="5.1"/>
<linearGradient id="SVGID_14_" gradientUnits="userSpaceOnUse" x1="520.0889" y1="106.7084" x2="184.0351" y2="255.2405">
	<stop  offset="0" style="stop-color:#C20234"/>
	<stop  offset="1" style="stop-color:#FEA711"/>
</linearGradient>
<ellipse class="st13" cx="375.9" cy="170.4" rx="5.2" ry="5.1"/>
<linearGradient id="SVGID_15_" gradientUnits="userSpaceOnUse" x1="523.3151" y1="113.8595" x2="187.2613" y2="262.3916">
	<stop  offset="0" style="stop-color:#C20234"/>
	<stop  offset="1" style="stop-color:#FEA711"/>
</linearGradient>
<ellipse class="st14" cx="395.3" cy="170.4" rx="5.2" ry="5.1"/>
<linearGradient id="SVGID_16_" gradientUnits="userSpaceOnUse" x1="526.5413" y1="121.0106" x2="190.4875" y2="269.5427">
	<stop  offset="0" style="stop-color:#C20234"/>
	<stop  offset="1" style="stop-color:#FEA711"/>
</linearGradient>
<ellipse class="st15" cx="414.7" cy="170.4" rx="5.2" ry="5.1"/>
<linearGradient id="SVGID_17_" gradientUnits="userSpaceOnUse" x1="529.7675" y1="128.1617" x2="193.7137" y2="276.6938">
	<stop  offset="0" style="stop-color:#C20234"/>
	<stop  offset="1" style="stop-color:#FEA711"/>
</linearGradient>
<ellipse class="st16" cx="434.1" cy="170.4" rx="5.2" ry="5.1"/>
<linearGradient id="SVGID_18_" gradientUnits="userSpaceOnUse" x1="532.9937" y1="135.3129" x2="196.9399" y2="283.8449">
	<stop  offset="0" style="stop-color:#C20234"/>
	<stop  offset="1" style="stop-color:#FEA711"/>
</linearGradient>
<ellipse class="st17" cx="453.5" cy="170.4" rx="5.2" ry="5.1"/>
<linearGradient id="SVGID_19_" gradientUnits="userSpaceOnUse" x1="516.1312" y1="97.9272" x2="180.0774" y2="246.4593">
	<stop  offset="0" style="stop-color:#C20234"/>
	<stop  offset="1" style="stop-color:#FEA711"/>
</linearGradient>
<ellipse class="st18" cx="317.7" cy="185.6" rx="5.2" ry="5.1"/>
<linearGradient id="SVGID_20_" gradientUnits="userSpaceOnUse" x1="519.3574" y1="105.0783" x2="183.3036" y2="253.6104">
	<stop  offset="0" style="stop-color:#C20234"/>
	<stop  offset="1" style="stop-color:#FEA711"/>
</linearGradient>
<ellipse class="st19" cx="337.1" cy="185.6" rx="5.2" ry="5.1"/>
<linearGradient id="SVGID_21_" gradientUnits="userSpaceOnUse" x1="522.5836" y1="112.2294" x2="186.5298" y2="260.7615">
	<stop  offset="0" style="stop-color:#C20234"/>
	<stop  offset="1" style="stop-color:#FEA711"/>
</linearGradient>
<ellipse class="st20" cx="356.5" cy="185.6" rx="5.2" ry="5.1"/>
<linearGradient id="SVGID_22_" gradientUnits="userSpaceOnUse" x1="525.8098" y1="119.3805" x2="189.756" y2="267.9126">
	<stop  offset="0" style="stop-color:#C20234"/>
	<stop  offset="1" style="stop-color:#FEA711"/>
</linearGradient>
<ellipse class="st21" cx="375.9" cy="185.6" rx="5.2" ry="5.1"/>
<linearGradient id="SVGID_23_" gradientUnits="userSpaceOnUse" x1="529.036" y1="126.5317" x2="192.9822" y2="275.0638">
	<stop  offset="0" style="stop-color:#C20234"/>
	<stop  offset="1" style="stop-color:#FEA711"/>
</linearGradient>
<ellipse class="st22" cx="395.3" cy="185.6" rx="5.2" ry="5.1"/>
<linearGradient id="SVGID_24_" gradientUnits="userSpaceOnUse" x1="532.2622" y1="133.6828" x2="196.2084" y2="282.2148">
	<stop  offset="0" style="stop-color:#C20234"/>
	<stop  offset="1" style="stop-color:#FEA711"/>
</linearGradient>
<ellipse class="st23" cx="414.7" cy="185.6" rx="5.2" ry="5.1"/>
<linearGradient id="SVGID_25_" gradientUnits="userSpaceOnUse" x1="535.4884" y1="140.8339" x2="199.4346" y2="289.366">
	<stop  offset="0" style="stop-color:#C20234"/>
	<stop  offset="1" style="stop-color:#FEA711"/>
</linearGradient>
<ellipse class="st24" cx="434.1" cy="185.6" rx="5.2" ry="5.1"/>
<linearGradient id="SVGID_26_" gradientUnits="userSpaceOnUse" x1="538.7146" y1="147.985" x2="202.6608" y2="296.5171">
	<stop  offset="0" style="stop-color:#C20234"/>
	<stop  offset="1" style="stop-color:#FEA711"/>
</linearGradient>
<ellipse class="st25" cx="453.5" cy="185.6" rx="5.2" ry="5.1"/>
<linearGradient id="SVGID_27_" gradientUnits="userSpaceOnUse" x1="521.8521" y1="110.5994" x2="185.7983" y2="259.1314">
	<stop  offset="0" style="stop-color:#C20234"/>
	<stop  offset="1" style="stop-color:#FEA711"/>
</linearGradient>
<ellipse class="st26" cx="317.7" cy="200.8" rx="5.2" ry="5.1"/>
<linearGradient id="SVGID_28_" gradientUnits="userSpaceOnUse" x1="525.0783" y1="117.7505" x2="189.0245" y2="266.2826">
	<stop  offset="0" style="stop-color:#C20234"/>
	<stop  offset="1" style="stop-color:#FEA711"/>
</linearGradient>
<ellipse class="st27" cx="337.1" cy="200.8" rx="5.2" ry="5.1"/>
<linearGradient id="SVGID_29_" gradientUnits="userSpaceOnUse" x1="528.3045" y1="124.9016" x2="192.2507" y2="273.4337">
	<stop  offset="0" style="stop-color:#C20234"/>
	<stop  offset="1" style="stop-color:#FEA711"/>
</linearGradient>
<ellipse class="st28" cx="356.5" cy="200.8" rx="5.2" ry="5.1"/>
<linearGradient id="SVGID_30_" gradientUnits="userSpaceOnUse" x1="531.5307" y1="132.0527" x2="195.4769" y2="280.5848">
	<stop  offset="0" style="stop-color:#C20234"/>
	<stop  offset="1" style="stop-color:#FEA711"/>
</linearGradient>
<ellipse class="st29" cx="375.9" cy="200.8" rx="5.2" ry="5.1"/>
<linearGradient id="SVGID_31_" gradientUnits="userSpaceOnUse" x1="534.7569" y1="139.2038" x2="198.7031" y2="287.7359">
	<stop  offset="0" style="stop-color:#C20234"/>
	<stop  offset="1" style="stop-color:#FEA711"/>
</linearGradient>
<ellipse class="st30" cx="395.3" cy="200.8" rx="5.2" ry="5.1"/>
<linearGradient id="SVGID_32_" gradientUnits="userSpaceOnUse" x1="537.9831" y1="146.3549" x2="201.9293" y2="294.887">
	<stop  offset="0" style="stop-color:#C20234"/>
	<stop  offset="1" style="stop-color:#FEA711"/>
</linearGradient>
<ellipse class="st31" cx="414.7" cy="200.8" rx="5.2" ry="5.1"/>
<linearGradient id="SVGID_33_" gradientUnits="userSpaceOnUse" x1="541.2093" y1="153.5061" x2="205.1555" y2="302.0381">
	<stop  offset="0" style="stop-color:#C20234"/>
	<stop  offset="1" style="stop-color:#FEA711"/>
</linearGradient>
<ellipse class="st32" cx="434.1" cy="200.8" rx="5.2" ry="5.1"/>
<linearGradient id="SVGID_34_" gradientUnits="userSpaceOnUse" x1="544.4355" y1="160.6572" x2="208.3817" y2="309.1892">
	<stop  offset="0" style="stop-color:#C20234"/>
	<stop  offset="1" style="stop-color:#FEA711"/>
</linearGradient>
<ellipse class="st33" cx="453.5" cy="200.8" rx="5.2" ry="5.1"/>
<g>
	<g>
		<linearGradient id="SVGID_35_" gradientUnits="userSpaceOnUse" x1="-42.2962" y1="34.5675" x2="226.6238" y2="153.3675">
			<stop  offset="0" style="stop-color:#C20234"/>
			<stop  offset="1" style="stop-color:#FEA711"/>
		</linearGradient>
		<polygon class="st34" points="80.8,108 77.8,107.6 82.9,70.8 85.9,71.2 		"/>
	</g>
	<g>
		<linearGradient id="SVGID_36_" gradientUnits="userSpaceOnUse" x1="-42.3096" y1="34.5979" x2="226.6104" y2="153.3979">
			<stop  offset="0" style="stop-color:#C20234"/>
			<stop  offset="1" style="stop-color:#FEA711"/>
		</linearGradient>
		<polygon class="st35" points="98.3,94.3 65.5,87.8 66,84.9 98.9,91.3 		"/>
	</g>
</g>
<g>
	<g>
		<linearGradient id="SVGID_37_" gradientUnits="userSpaceOnUse" x1="-67.6618" y1="63.2406" x2="201.2582" y2="182.0405">
			<stop  offset="0" style="stop-color:#C20234"/>
			<stop  offset="1" style="stop-color:#FEA711"/>
		</linearGradient>
		<polygon class="st36" points="105,150.7 102,150.3 105.4,128.5 108.3,128.9 		"/>
	</g>
	<g>
		<linearGradient id="SVGID_38_" gradientUnits="userSpaceOnUse" x1="-67.6669" y1="63.2521" x2="201.2531" y2="182.0521">
			<stop  offset="0" style="stop-color:#C20234"/>
			<stop  offset="1" style="stop-color:#FEA711"/>
		</linearGradient>
		<polygon class="st37" points="115.7,143.1 94.5,139.3 95,136.3 116.3,140.1 		"/>
	</g>
</g>
<g>
	<linearGradient id="SVGID_39_" gradientUnits="userSpaceOnUse" x1="-99.599" y1="54.6329" x2="300.7176" y2="231.4796">
		<stop  offset="0" style="stop-color:#C20234"/>
		<stop  offset="1" style="stop-color:#FEA711"/>
	</linearGradient>
	<path class="st38" d="M65.5,148c-10.8,0-19.5-9.2-19.5-20.4c0-11.3,8.7-20.4,19.5-20.4S85,116.3,85,127.6
		C85,138.8,76.3,148,65.5,148z M65.5,111.6c-8.3,0-15,7.2-15,16c0,8.8,6.7,16,15,16s15-7.2,15-16C80.5,118.8,73.8,111.6,65.5,111.6z
		"/>
</g>
<g>
	<linearGradient id="SVGID_40_" gradientUnits="userSpaceOnUse" x1="32.1956" y1="85.3131" x2="255.0121" y2="183.7461">
		<stop  offset="0" style="stop-color:#C20234"/>
		<stop  offset="1" style="stop-color:#FEA711"/>
	</linearGradient>
	<path class="st39" d="M124.1,137c-6,0-10.9-5-10.9-11.1c0-6.1,4.9-11.1,10.9-11.1s10.9,5,10.9,11.1C135,132,130.1,137,124.1,137z
		 M124.1,117.2c-4.6,0-8.4,3.9-8.4,8.7c0,4.8,3.8,8.7,8.4,8.7c4.6,0,8.4-3.9,8.4-8.7C132.5,121.1,128.7,117.2,124.1,117.2z"/>
</g>
<g>
	<defs>
		<path id="SVGID_41_" d="M71.9,493.5c0,0,61.8,53.6,179,78.1c0,0,75.5,15.3,110.9,12c35.4-3.3,78.4-10.3,100.3-23.3
			c21.8-13,6.3-499.4,6.3-499.4L196.7-43L89.3-3.7L71.9,493.5z"/>
	</defs>
	<clipPath id="SVGID_42_">
		<use xlink:href="#SVGID_41_"  style="overflow:visible;"/>
	</clipPath>
	<g class="st40">
		<image style="overflow:visible;" width="500" height="500" xlink:href="84C58788.png"  transform="matrix(1 0 0 1 10 94)">
		</image>
	</g>
</g>
</svg>
