<?xml version="1.0" encoding="utf-8"?>
<!-- Generator: Adobe Illustrator 23.0.3, SVG Export Plug-In . SVG Version: 6.00 Build 0)  -->
<svg version="1.1" id="Layer_1" xmlns="http://www.w3.org/2000/svg" xmlns:xlink="http://www.w3.org/1999/xlink" x="0px" y="0px"
	 viewBox="0 0 512 512" style="enable-background:new 0 0 512 512;" xml:space="preserve">
<style type="text/css">
	.st0{fill:url(#SVGID_1_);}
	.st1{fill:url(#SVGID_2_);}
	.st2{fill:url(#SVGID_3_);}
	.st3{fill:url(#SVGID_4_);}
	.st4{fill:url(#SVGID_5_);}
</style>
<g>
	<linearGradient id="SVGID_1_" gradientUnits="userSpaceOnUse" x1="446.6751" y1="4.1545" x2="100.6752" y2="461.1545">
		<stop  offset="0" style="stop-color:#C20234"/>
		<stop  offset="1" style="stop-color:#FEA711"/>
	</linearGradient>
	<path class="st0" d="M401.9,1.5H353H159h-48.9C95.5,1.5,83.6,13.4,83.6,28v456c0,14.6,11.9,26.5,26.5,26.5h291.8
		c14.6,0,26.5-11.9,26.5-26.5V28C428.4,13.4,416.5,1.5,401.9,1.5z M110.1,14.5h44.6l13.2,31.1c4.2,9.8,13.7,16.2,24.4,16.2h127.4
		c10.7,0,20.2-6.3,24.4-16.2l13.2-31.1h44.6c7.4,0,13.5,6.1,13.5,13.5v456c0,7.4-6.1,13.5-13.5,13.5H110.1
		c-7.4,0-13.5-6.1-13.5-13.5V28C96.6,20.6,102.7,14.5,110.1,14.5z M332.1,40.5c-2.1,5-7,8.2-12.4,8.2H192.3
		c-5.4,0-10.3-3.2-12.4-8.2l-11-26h174.3L332.1,40.5z"/>
	<linearGradient id="SVGID_2_" gradientUnits="userSpaceOnUse" x1="263.7932" y1="-134.3075" x2="-82.2068" y2="322.6925">
		<stop  offset="0" style="stop-color:#C20234"/>
		<stop  offset="1" style="stop-color:#FEA711"/>
	</linearGradient>
	<path class="st1" d="M110.1,87.2c3.6,0,6.5-2.9,6.5-6.5v-24c0-3.6-2.9-6.5-6.5-6.5s-6.5,2.9-6.5,6.5v24
		C103.6,84.2,106.5,87.2,110.1,87.2z"/>
	<linearGradient id="SVGID_3_" gradientUnits="userSpaceOnUse" x1="446.6753" y1="4.1546" x2="100.6753" y2="461.1546">
		<stop  offset="0" style="stop-color:#C20234"/>
		<stop  offset="1" style="stop-color:#FEA711"/>
	</linearGradient>
	<path class="st2" d="M130.7,332.1C130.7,332.1,130.7,332.1,130.7,332.1l122,70.5c1,0.6,2.1,0.9,3.2,0.9s2.3-0.3,3.3-0.9l122-70.4
		c0,0,0,0,0,0c2-1.2,3.3-3.3,3.3-5.6V185.6c0-2.3-1.2-4.5-3.3-5.6l-122-70.5c-0.3-0.1-0.5-0.3-0.8-0.4c0,0-0.1,0-0.1,0
		c-1.8-0.7-3.9-0.6-5.6,0.4c0,0,0,0-0.1,0l0,0c0,0,0,0,0,0l-122,70.4c-2,1.2-3.3,3.3-3.3,5.6v140.9
		C127.5,328.8,128.7,330.9,130.7,332.1z M371.5,315.2l-25.2-14.5v-93.1c0-2.3-1.2-4.5-3.3-5.6l-80.6-46.5v-29.1l109,62.9V315.2z
		 M333.3,211.3v89.3L256,345.3l-77.3-44.7v-89.3l77.3-44.7L333.3,211.3z M172.2,311.9l80.6,46.5c2,1.2,4.5,1.2,6.5,0l80.6-46.5
		l19.2,11.1l5.9,3.4l-109,62.9l-109-62.9L172.2,311.9z M140.5,189.3l109-62.9v29.1L168.9,202c-2,1.2-3.3,3.3-3.3,5.6v93.1
		l-25.2,14.5V189.3z"/>
	<linearGradient id="SVGID_4_" gradientUnits="userSpaceOnUse" x1="419.7748" y1="-16.212" x2="73.7748" y2="440.788">
		<stop  offset="0" style="stop-color:#C20234"/>
		<stop  offset="1" style="stop-color:#FEA711"/>
	</linearGradient>
	<path class="st3" d="M219.5,293.2c17.2,0,31.1-14,31.1-31.1v-35.3c0-4.5-3.5-7.9-7.9-7.9c-4.5,0-8,3.5-8,7.9V262
		c0,8.3-6.8,15.1-15.1,15.1c-8.3,0-15.1-6.8-15.1-15.1v-35.3c0-4.4-3.6-7.9-8-7.9c-4.5,0-7.9,3.5-7.9,7.9V262
		C188.4,279.2,202.4,293.2,219.5,293.2z"/>
	<linearGradient id="SVGID_5_" gradientUnits="userSpaceOnUse" x1="471.4066" y1="22.8789" x2="125.4066" y2="479.8789">
		<stop  offset="0" style="stop-color:#C20234"/>
		<stop  offset="1" style="stop-color:#FEA711"/>
	</linearGradient>
	<path class="st4" d="M265.7,286.6c0.4,2,1.5,3.8,3.2,5c1.3,1,2.9,1.6,4.6,1.6c2.4,0,4.7-1.2,6.4-3.3l14.7-20.1l14.7,20.2
		c1.6,2.1,4,3.2,6.4,3.2c1.6,0,3.2-0.5,4.6-1.5c1.7-1.1,2.8-2.9,3.2-4.9c0.4-2.1-0.1-4.3-1.4-6.1l-17.7-24.3l17.7-24.1l0.1-0.1
		c1.2-1.7,1.7-3.8,1.4-5.8c-0.3-2.1-1.4-3.9-3.2-5.1c-1.7-1.3-3.8-1.8-5.8-1.5c-2.1,0.3-4,1.5-5.3,3.3l-14.6,20l-14.7-20
		c-1.2-1.8-3-3-5.1-3.3c-2.1-0.3-4.3,0.2-6,1.5c-3.5,2.4-4.3,7.3-1.8,11l17.7,24.1L267,280.6C265.8,282.3,265.3,284.5,265.7,286.6z"
		/>
</g>
</svg>
